<svg width="16" height="19" viewBox="0 0 16 19" fill="none" xmlns="http://www.w3.org/2000/svg">
<path d="M14.6793 4.85258H12.1479V4.28554C12.1479 1.9161 10.2442 0.0124512 7.91531 0.0124512C5.58638 0.0124512 3.68273 1.9161 3.68273 4.28554V4.85258H1.15128C0.807002 4.85258 0.543732 5.11585 0.543732 5.46013V17.125C0.543732 17.9959 1.25254 18.6844 2.1031 18.6844H13.687C14.5578 18.6844 15.2464 17.9756 15.2464 17.125V5.43988C15.2869 5.11585 15.0034 4.85258 14.6793 4.85258ZM4.89782 4.26528C4.89782 2.5844 6.25468 1.20729 7.91531 1.20729C9.57594 1.20729 10.9328 2.5844 10.9328 4.26528V4.83233H4.89782V4.26528ZM13.7073 17.4693H2.12336C1.92084 17.4693 1.75883 17.3073 1.75883 17.1048V6.04742H3.68273V9.38894C3.68273 9.73321 3.946 9.99648 4.29028 9.99648C4.63455 9.99648 4.89782 9.73321 4.89782 9.38894V6.04742H10.9328V9.38894C10.9328 9.73321 11.1961 9.99648 11.5403 9.99648C11.8846 9.99648 12.1479 9.73321 12.1479 9.38894V6.04742H14.0718V17.1048C14.0718 17.3073 13.9098 17.4693 13.7073 17.4693Z" fill="white"/>
</svg>
