<svg width="6" height="9" viewBox="0 0 6 9" fill="none" xmlns="http://www.w3.org/2000/svg">
<mask id="path-1-outside-1_3_283" maskUnits="userSpaceOnUse" x="0.433472" y="0.372314" width="6" height="9" fill="black">
<rect fill="white" x="0.433472" y="0.372314" width="6" height="9"/>
<path d="M5.37498 4.58268L1.77338 1.42362C1.73438 1.38942 1.68324 1.37231 1.6321 1.37231C1.58096 1.37231 1.52982 1.38942 1.49083 1.42362C1.41284 1.49202 1.41284 1.60296 1.49083 1.67136L4.95126 4.70659L1.49083 7.74183C1.41284 7.81023 1.41284 7.92116 1.49083 7.98957C1.56881 8.05797 1.69529 8.05797 1.77328 7.98957L5.37498 4.83051C5.45297 4.76202 5.45297 4.65117 5.37498 4.58268Z"/>
</mask>
<path d="M5.37498 4.58268L1.77338 1.42362C1.73438 1.38942 1.68324 1.37231 1.6321 1.37231C1.58096 1.37231 1.52982 1.38942 1.49083 1.42362C1.41284 1.49202 1.41284 1.60296 1.49083 1.67136L4.95126 4.70659L1.49083 7.74183C1.41284 7.81023 1.41284 7.92116 1.49083 7.98957C1.56881 8.05797 1.69529 8.05797 1.77328 7.98957L5.37498 4.83051C5.45297 4.76202 5.45297 4.65117 5.37498 4.58268Z" fill="#999999"/>
<path d="M5.37498 4.58268L5.72677 4.18161L5.72703 4.18184L5.37498 4.58268ZM1.77338 1.42362L2.12516 1.02255L1.77338 1.42362ZM1.49083 1.67136L1.13904 2.07243L1.13904 2.07243L1.49083 1.67136ZM4.95126 4.70659L5.30304 4.30553L5.76029 4.70659L5.30304 5.10766L4.95126 4.70659ZM1.49083 7.74183L1.13904 7.34076H1.13904L1.49083 7.74183ZM1.49083 7.98957L1.13904 8.39064L1.49083 7.98957ZM1.77328 7.98957L1.42149 7.5885L1.4215 7.5885L1.77328 7.98957ZM5.37498 4.83051L5.72703 5.23135L5.72676 5.23158L5.37498 4.83051ZM5.0232 4.98374L1.42159 1.82468L2.12516 1.02255L5.72677 4.18161L5.0232 4.98374ZM1.42159 1.82468C1.49019 1.88485 1.56816 1.9058 1.6321 1.9058V0.83883C1.79832 0.83883 1.97857 0.893977 2.12516 1.02255L1.42159 1.82468ZM1.6321 1.9058C1.69604 1.9058 1.77401 1.88486 1.84261 1.82468L1.13904 1.02255C1.28563 0.893975 1.46588 0.83883 1.6321 0.83883V1.9058ZM1.84261 1.82468C1.91459 1.76155 1.96582 1.66217 1.96582 1.54749C1.96582 1.43281 1.91459 1.33343 1.84261 1.2703L1.13904 2.07243C0.818789 1.79152 0.818789 1.30346 1.13904 1.02255L1.84261 1.82468ZM1.84261 1.2703L5.30304 4.30553L4.59947 5.10766L1.13904 2.07243L1.84261 1.2703ZM5.30304 5.10766L1.84261 8.14289L1.13904 7.34076L4.59947 4.30553L5.30304 5.10766ZM1.84261 8.14289C1.91459 8.07976 1.96582 7.98038 1.96582 7.8657C1.96582 7.75101 1.91459 7.65164 1.84261 7.5885L1.13904 8.39064C0.818789 8.10973 0.818789 7.62166 1.13904 7.34076L1.84261 8.14289ZM1.84261 7.5885C1.77408 7.52839 1.69612 7.50739 1.63205 7.50739C1.56799 7.50739 1.49002 7.52839 1.42149 7.5885L2.12506 8.39064C1.84578 8.6356 1.41832 8.6356 1.13904 8.39064L1.84261 7.5885ZM1.4215 7.5885L5.0232 4.42944L5.72676 5.23158L2.12505 8.39064L1.4215 7.5885ZM5.02294 4.42967C4.95125 4.49264 4.89999 4.59186 4.89999 4.70659C4.89999 4.82133 4.95125 4.92055 5.02294 4.98351L5.72703 4.18184C6.04693 4.46281 6.04693 4.95038 5.72703 5.23135L5.02294 4.42967Z" fill="#777777" mask="url(#path-1-outside-1_3_283)"/>
</svg>
