<svg width="87" height="72" viewBox="0 0 87 72" fill="none" xmlns="http://www.w3.org/2000/svg">
<path d="M2.55882 1.28571C2.55882 1.99579 1.98601 2.57143 1.27941 2.57143C0.572812 2.57143 0 1.99579 0 1.28571C0 0.575634 0.572812 0 1.27941 0C1.98601 0 2.55882 0.575634 2.55882 1.28571Z" fill="white"/>
<path d="M2.55882 1.28571C2.55882 1.99579 1.98601 2.57143 1.27941 2.57143C0.572812 2.57143 0 1.99579 0 1.28571C0 0.575634 0.572812 0 1.27941 0C1.98601 0 2.55882 0.575634 2.55882 1.28571Z" fill="#002A25" fill-opacity="0.15"/>
<path d="M11.9412 1.28571C11.9412 1.99579 11.3684 2.57143 10.6618 2.57143C9.95517 2.57143 9.38235 1.99579 9.38235 1.28571C9.38235 0.575634 9.95517 0 10.6618 0C11.3684 0 11.9412 0.575634 11.9412 1.28571Z" fill="white"/>
<path d="M11.9412 1.28571C11.9412 1.99579 11.3684 2.57143 10.6618 2.57143C9.95517 2.57143 9.38235 1.99579 9.38235 1.28571C9.38235 0.575634 9.95517 0 10.6618 0C11.3684 0 11.9412 0.575634 11.9412 1.28571Z" fill="#002A25" fill-opacity="0.15"/>
<path d="M21.3235 1.28571C21.3235 1.99579 20.7507 2.57143 20.0441 2.57143C19.3375 2.57143 18.7647 1.99579 18.7647 1.28571C18.7647 0.575634 19.3375 0 20.0441 0C20.7507 0 21.3235 0.575634 21.3235 1.28571Z" fill="white"/>
<path d="M21.3235 1.28571C21.3235 1.99579 20.7507 2.57143 20.0441 2.57143C19.3375 2.57143 18.7647 1.99579 18.7647 1.28571C18.7647 0.575634 19.3375 0 20.0441 0C20.7507 0 21.3235 0.575634 21.3235 1.28571Z" fill="#002A25" fill-opacity="0.15"/>
<path d="M30.7059 1.28571C30.7059 1.99579 30.1331 2.57143 29.4265 2.57143C28.7199 2.57143 28.1471 1.99579 28.1471 1.28571C28.1471 0.575634 28.7199 0 29.4265 0C30.1331 0 30.7059 0.575634 30.7059 1.28571Z" fill="white"/>
<path d="M30.7059 1.28571C30.7059 1.99579 30.1331 2.57143 29.4265 2.57143C28.7199 2.57143 28.1471 1.99579 28.1471 1.28571C28.1471 0.575634 28.7199 0 29.4265 0C30.1331 0 30.7059 0.575634 30.7059 1.28571Z" fill="#002A25" fill-opacity="0.15"/>
<path d="M40.0882 1.28571C40.0882 1.99579 39.5154 2.57143 38.8088 2.57143C38.1022 2.57143 37.5294 1.99579 37.5294 1.28571C37.5294 0.575634 38.1022 0 38.8088 0C39.5154 0 40.0882 0.575634 40.0882 1.28571Z" fill="white"/>
<path d="M40.0882 1.28571C40.0882 1.99579 39.5154 2.57143 38.8088 2.57143C38.1022 2.57143 37.5294 1.99579 37.5294 1.28571C37.5294 0.575634 38.1022 0 38.8088 0C39.5154 0 40.0882 0.575634 40.0882 1.28571Z" fill="#002A25" fill-opacity="0.15"/>
<path d="M49.4706 1.28571C49.4706 1.99579 48.8978 2.57143 48.1912 2.57143C47.4846 2.57143 46.9118 1.99579 46.9118 1.28571C46.9118 0.575634 47.4846 0 48.1912 0C48.8978 0 49.4706 0.575634 49.4706 1.28571Z" fill="white"/>
<path d="M49.4706 1.28571C49.4706 1.99579 48.8978 2.57143 48.1912 2.57143C47.4846 2.57143 46.9118 1.99579 46.9118 1.28571C46.9118 0.575634 47.4846 0 48.1912 0C48.8978 0 49.4706 0.575634 49.4706 1.28571Z" fill="#002A25" fill-opacity="0.15"/>
<path d="M58.8529 1.28571C58.8529 1.99579 58.2801 2.57143 57.5735 2.57143C56.8669 2.57143 56.2941 1.99579 56.2941 1.28571C56.2941 0.575634 56.8669 0 57.5735 0C58.2801 0 58.8529 0.575634 58.8529 1.28571Z" fill="white"/>
<path d="M58.8529 1.28571C58.8529 1.99579 58.2801 2.57143 57.5735 2.57143C56.8669 2.57143 56.2941 1.99579 56.2941 1.28571C56.2941 0.575634 56.8669 0 57.5735 0C58.2801 0 58.8529 0.575634 58.8529 1.28571Z" fill="#002A25" fill-opacity="0.15"/>
<path d="M68.2353 1.28571C68.2353 1.99579 67.6625 2.57143 66.9559 2.57143C66.2493 2.57143 65.6765 1.99579 65.6765 1.28571C65.6765 0.575634 66.2493 0 66.9559 0C67.6625 0 68.2353 0.575634 68.2353 1.28571Z" fill="white"/>
<path d="M68.2353 1.28571C68.2353 1.99579 67.6625 2.57143 66.9559 2.57143C66.2493 2.57143 65.6765 1.99579 65.6765 1.28571C65.6765 0.575634 66.2493 0 66.9559 0C67.6625 0 68.2353 0.575634 68.2353 1.28571Z" fill="#002A25" fill-opacity="0.15"/>
<path d="M77.6177 1.28571C77.6177 1.99579 77.0448 2.57143 76.3382 2.57143C75.6316 2.57143 75.0588 1.99579 75.0588 1.28571C75.0588 0.575634 75.6316 0 76.3382 0C77.0448 0 77.6177 0.575634 77.6177 1.28571Z" fill="white"/>
<path d="M77.6177 1.28571C77.6177 1.99579 77.0448 2.57143 76.3382 2.57143C75.6316 2.57143 75.0588 1.99579 75.0588 1.28571C75.0588 0.575634 75.6316 0 76.3382 0C77.0448 0 77.6177 0.575634 77.6177 1.28571Z" fill="#002A25" fill-opacity="0.15"/>
<path d="M87 1.28571C87 1.99579 86.4272 2.57143 85.7206 2.57143C85.014 2.57143 84.4412 1.99579 84.4412 1.28571C84.4412 0.575634 85.014 0 85.7206 0C86.4272 0 87 0.575634 87 1.28571Z" fill="white"/>
<path d="M87 1.28571C87 1.99579 86.4272 2.57143 85.7206 2.57143C85.014 2.57143 84.4412 1.99579 84.4412 1.28571C84.4412 0.575634 85.014 0 85.7206 0C86.4272 0 87 0.575634 87 1.28571Z" fill="#002A25" fill-opacity="0.15"/>
<path d="M2.55882 9C2.55882 9.71008 1.98601 10.2857 1.27941 10.2857C0.572812 10.2857 0 9.71008 0 9C0 8.28992 0.572812 7.71429 1.27941 7.71429C1.98601 7.71429 2.55882 8.28992 2.55882 9Z" fill="white"/>
<path d="M2.55882 9C2.55882 9.71008 1.98601 10.2857 1.27941 10.2857C0.572812 10.2857 0 9.71008 0 9C0 8.28992 0.572812 7.71429 1.27941 7.71429C1.98601 7.71429 2.55882 8.28992 2.55882 9Z" fill="#002A25" fill-opacity="0.15"/>
<path d="M11.9412 9C11.9412 9.71008 11.3684 10.2857 10.6618 10.2857C9.95517 10.2857 9.38235 9.71008 9.38235 9C9.38235 8.28992 9.95517 7.71429 10.6618 7.71429C11.3684 7.71429 11.9412 8.28992 11.9412 9Z" fill="white"/>
<path d="M11.9412 9C11.9412 9.71008 11.3684 10.2857 10.6618 10.2857C9.95517 10.2857 9.38235 9.71008 9.38235 9C9.38235 8.28992 9.95517 7.71429 10.6618 7.71429C11.3684 7.71429 11.9412 8.28992 11.9412 9Z" fill="#002A25" fill-opacity="0.15"/>
<path d="M21.3235 9C21.3235 9.71008 20.7507 10.2857 20.0441 10.2857C19.3375 10.2857 18.7647 9.71008 18.7647 9C18.7647 8.28992 19.3375 7.71429 20.0441 7.71429C20.7507 7.71429 21.3235 8.28992 21.3235 9Z" fill="white"/>
<path d="M21.3235 9C21.3235 9.71008 20.7507 10.2857 20.0441 10.2857C19.3375 10.2857 18.7647 9.71008 18.7647 9C18.7647 8.28992 19.3375 7.71429 20.0441 7.71429C20.7507 7.71429 21.3235 8.28992 21.3235 9Z" fill="#002A25" fill-opacity="0.15"/>
<path d="M30.7059 9C30.7059 9.71008 30.1331 10.2857 29.4265 10.2857C28.7199 10.2857 28.1471 9.71008 28.1471 9C28.1471 8.28992 28.7199 7.71429 29.4265 7.71429C30.1331 7.71429 30.7059 8.28992 30.7059 9Z" fill="white"/>
<path d="M30.7059 9C30.7059 9.71008 30.1331 10.2857 29.4265 10.2857C28.7199 10.2857 28.1471 9.71008 28.1471 9C28.1471 8.28992 28.7199 7.71429 29.4265 7.71429C30.1331 7.71429 30.7059 8.28992 30.7059 9Z" fill="#002A25" fill-opacity="0.15"/>
<path d="M40.0882 9C40.0882 9.71008 39.5154 10.2857 38.8088 10.2857C38.1022 10.2857 37.5294 9.71008 37.5294 9C37.5294 8.28992 38.1022 7.71429 38.8088 7.71429C39.5154 7.71429 40.0882 8.28992 40.0882 9Z" fill="white"/>
<path d="M40.0882 9C40.0882 9.71008 39.5154 10.2857 38.8088 10.2857C38.1022 10.2857 37.5294 9.71008 37.5294 9C37.5294 8.28992 38.1022 7.71429 38.8088 7.71429C39.5154 7.71429 40.0882 8.28992 40.0882 9Z" fill="#002A25" fill-opacity="0.15"/>
<path d="M49.4706 9C49.4706 9.71008 48.8978 10.2857 48.1912 10.2857C47.4846 10.2857 46.9118 9.71008 46.9118 9C46.9118 8.28992 47.4846 7.71429 48.1912 7.71429C48.8978 7.71429 49.4706 8.28992 49.4706 9Z" fill="white"/>
<path d="M49.4706 9C49.4706 9.71008 48.8978 10.2857 48.1912 10.2857C47.4846 10.2857 46.9118 9.71008 46.9118 9C46.9118 8.28992 47.4846 7.71429 48.1912 7.71429C48.8978 7.71429 49.4706 8.28992 49.4706 9Z" fill="#002A25" fill-opacity="0.15"/>
<path d="M58.8529 9C58.8529 9.71008 58.2801 10.2857 57.5735 10.2857C56.8669 10.2857 56.2941 9.71008 56.2941 9C56.2941 8.28992 56.8669 7.71429 57.5735 7.71429C58.2801 7.71429 58.8529 8.28992 58.8529 9Z" fill="white"/>
<path d="M58.8529 9C58.8529 9.71008 58.2801 10.2857 57.5735 10.2857C56.8669 10.2857 56.2941 9.71008 56.2941 9C56.2941 8.28992 56.8669 7.71429 57.5735 7.71429C58.2801 7.71429 58.8529 8.28992 58.8529 9Z" fill="#002A25" fill-opacity="0.15"/>
<path d="M68.2353 9C68.2353 9.71008 67.6625 10.2857 66.9559 10.2857C66.2493 10.2857 65.6765 9.71008 65.6765 9C65.6765 8.28992 66.2493 7.71429 66.9559 7.71429C67.6625 7.71429 68.2353 8.28992 68.2353 9Z" fill="white"/>
<path d="M68.2353 9C68.2353 9.71008 67.6625 10.2857 66.9559 10.2857C66.2493 10.2857 65.6765 9.71008 65.6765 9C65.6765 8.28992 66.2493 7.71429 66.9559 7.71429C67.6625 7.71429 68.2353 8.28992 68.2353 9Z" fill="#002A25" fill-opacity="0.15"/>
<path d="M77.6177 9C77.6177 9.71008 77.0448 10.2857 76.3382 10.2857C75.6316 10.2857 75.0588 9.71008 75.0588 9C75.0588 8.28992 75.6316 7.71429 76.3382 7.71429C77.0448 7.71429 77.6177 8.28992 77.6177 9Z" fill="white"/>
<path d="M77.6177 9C77.6177 9.71008 77.0448 10.2857 76.3382 10.2857C75.6316 10.2857 75.0588 9.71008 75.0588 9C75.0588 8.28992 75.6316 7.71429 76.3382 7.71429C77.0448 7.71429 77.6177 8.28992 77.6177 9Z" fill="#002A25" fill-opacity="0.15"/>
<path d="M87 9C87 9.71008 86.4272 10.2857 85.7206 10.2857C85.014 10.2857 84.4412 9.71008 84.4412 9C84.4412 8.28992 85.014 7.71429 85.7206 7.71429C86.4272 7.71429 87 8.28992 87 9Z" fill="white"/>
<path d="M87 9C87 9.71008 86.4272 10.2857 85.7206 10.2857C85.014 10.2857 84.4412 9.71008 84.4412 9C84.4412 8.28992 85.014 7.71429 85.7206 7.71429C86.4272 7.71429 87 8.28992 87 9Z" fill="#002A25" fill-opacity="0.15"/>
<path d="M2.55882 16.7143C2.55882 17.4244 1.98601 18 1.27941 18C0.572812 18 0 17.4244 0 16.7143C0 16.0042 0.572812 15.4286 1.27941 15.4286C1.98601 15.4286 2.55882 16.0042 2.55882 16.7143Z" fill="white"/>
<path d="M2.55882 16.7143C2.55882 17.4244 1.98601 18 1.27941 18C0.572812 18 0 17.4244 0 16.7143C0 16.0042 0.572812 15.4286 1.27941 15.4286C1.98601 15.4286 2.55882 16.0042 2.55882 16.7143Z" fill="#002A25" fill-opacity="0.15"/>
<path d="M11.9412 16.7143C11.9412 17.4244 11.3684 18 10.6618 18C9.95517 18 9.38235 17.4244 9.38235 16.7143C9.38235 16.0042 9.95517 15.4286 10.6618 15.4286C11.3684 15.4286 11.9412 16.0042 11.9412 16.7143Z" fill="white"/>
<path d="M11.9412 16.7143C11.9412 17.4244 11.3684 18 10.6618 18C9.95517 18 9.38235 17.4244 9.38235 16.7143C9.38235 16.0042 9.95517 15.4286 10.6618 15.4286C11.3684 15.4286 11.9412 16.0042 11.9412 16.7143Z" fill="#002A25" fill-opacity="0.15"/>
<path d="M21.3235 16.7143C21.3235 17.4244 20.7507 18 20.0441 18C19.3375 18 18.7647 17.4244 18.7647 16.7143C18.7647 16.0042 19.3375 15.4286 20.0441 15.4286C20.7507 15.4286 21.3235 16.0042 21.3235 16.7143Z" fill="white"/>
<path d="M21.3235 16.7143C21.3235 17.4244 20.7507 18 20.0441 18C19.3375 18 18.7647 17.4244 18.7647 16.7143C18.7647 16.0042 19.3375 15.4286 20.0441 15.4286C20.7507 15.4286 21.3235 16.0042 21.3235 16.7143Z" fill="#002A25" fill-opacity="0.15"/>
<path d="M30.7059 16.7143C30.7059 17.4244 30.1331 18 29.4265 18C28.7199 18 28.1471 17.4244 28.1471 16.7143C28.1471 16.0042 28.7199 15.4286 29.4265 15.4286C30.1331 15.4286 30.7059 16.0042 30.7059 16.7143Z" fill="white"/>
<path d="M30.7059 16.7143C30.7059 17.4244 30.1331 18 29.4265 18C28.7199 18 28.1471 17.4244 28.1471 16.7143C28.1471 16.0042 28.7199 15.4286 29.4265 15.4286C30.1331 15.4286 30.7059 16.0042 30.7059 16.7143Z" fill="#002A25" fill-opacity="0.15"/>
<path d="M40.0882 16.7143C40.0882 17.4244 39.5154 18 38.8088 18C38.1022 18 37.5294 17.4244 37.5294 16.7143C37.5294 16.0042 38.1022 15.4286 38.8088 15.4286C39.5154 15.4286 40.0882 16.0042 40.0882 16.7143Z" fill="white"/>
<path d="M40.0882 16.7143C40.0882 17.4244 39.5154 18 38.8088 18C38.1022 18 37.5294 17.4244 37.5294 16.7143C37.5294 16.0042 38.1022 15.4286 38.8088 15.4286C39.5154 15.4286 40.0882 16.0042 40.0882 16.7143Z" fill="#002A25" fill-opacity="0.15"/>
<path d="M49.4706 16.7143C49.4706 17.4244 48.8978 18 48.1912 18C47.4846 18 46.9118 17.4244 46.9118 16.7143C46.9118 16.0042 47.4846 15.4286 48.1912 15.4286C48.8978 15.4286 49.4706 16.0042 49.4706 16.7143Z" fill="white"/>
<path d="M49.4706 16.7143C49.4706 17.4244 48.8978 18 48.1912 18C47.4846 18 46.9118 17.4244 46.9118 16.7143C46.9118 16.0042 47.4846 15.4286 48.1912 15.4286C48.8978 15.4286 49.4706 16.0042 49.4706 16.7143Z" fill="#002A25" fill-opacity="0.15"/>
<path d="M58.8529 16.7143C58.8529 17.4244 58.2801 18 57.5735 18C56.8669 18 56.2941 17.4244 56.2941 16.7143C56.2941 16.0042 56.8669 15.4286 57.5735 15.4286C58.2801 15.4286 58.8529 16.0042 58.8529 16.7143Z" fill="white"/>
<path d="M58.8529 16.7143C58.8529 17.4244 58.2801 18 57.5735 18C56.8669 18 56.2941 17.4244 56.2941 16.7143C56.2941 16.0042 56.8669 15.4286 57.5735 15.4286C58.2801 15.4286 58.8529 16.0042 58.8529 16.7143Z" fill="#002A25" fill-opacity="0.15"/>
<path d="M68.2353 16.7143C68.2353 17.4244 67.6625 18 66.9559 18C66.2493 18 65.6765 17.4244 65.6765 16.7143C65.6765 16.0042 66.2493 15.4286 66.9559 15.4286C67.6625 15.4286 68.2353 16.0042 68.2353 16.7143Z" fill="white"/>
<path d="M68.2353 16.7143C68.2353 17.4244 67.6625 18 66.9559 18C66.2493 18 65.6765 17.4244 65.6765 16.7143C65.6765 16.0042 66.2493 15.4286 66.9559 15.4286C67.6625 15.4286 68.2353 16.0042 68.2353 16.7143Z" fill="#002A25" fill-opacity="0.15"/>
<path d="M77.6177 16.7143C77.6177 17.4244 77.0448 18 76.3382 18C75.6316 18 75.0588 17.4244 75.0588 16.7143C75.0588 16.0042 75.6316 15.4286 76.3382 15.4286C77.0448 15.4286 77.6177 16.0042 77.6177 16.7143Z" fill="white"/>
<path d="M77.6177 16.7143C77.6177 17.4244 77.0448 18 76.3382 18C75.6316 18 75.0588 17.4244 75.0588 16.7143C75.0588 16.0042 75.6316 15.4286 76.3382 15.4286C77.0448 15.4286 77.6177 16.0042 77.6177 16.7143Z" fill="#002A25" fill-opacity="0.15"/>
<path d="M87 16.7143C87 17.4244 86.4272 18 85.7206 18C85.014 18 84.4412 17.4244 84.4412 16.7143C84.4412 16.0042 85.014 15.4286 85.7206 15.4286C86.4272 15.4286 87 16.0042 87 16.7143Z" fill="white"/>
<path d="M87 16.7143C87 17.4244 86.4272 18 85.7206 18C85.014 18 84.4412 17.4244 84.4412 16.7143C84.4412 16.0042 85.014 15.4286 85.7206 15.4286C86.4272 15.4286 87 16.0042 87 16.7143Z" fill="#002A25" fill-opacity="0.15"/>
<path d="M2.55882 24.4286C2.55882 25.1387 1.98601 25.7143 1.27941 25.7143C0.572812 25.7143 0 25.1387 0 24.4286C0 23.7185 0.572812 23.1429 1.27941 23.1429C1.98601 23.1429 2.55882 23.7185 2.55882 24.4286Z" fill="white"/>
<path d="M2.55882 24.4286C2.55882 25.1387 1.98601 25.7143 1.27941 25.7143C0.572812 25.7143 0 25.1387 0 24.4286C0 23.7185 0.572812 23.1429 1.27941 23.1429C1.98601 23.1429 2.55882 23.7185 2.55882 24.4286Z" fill="#002A25" fill-opacity="0.15"/>
<path d="M11.9412 24.4286C11.9412 25.1387 11.3684 25.7143 10.6618 25.7143C9.95517 25.7143 9.38235 25.1387 9.38235 24.4286C9.38235 23.7185 9.95517 23.1429 10.6618 23.1429C11.3684 23.1429 11.9412 23.7185 11.9412 24.4286Z" fill="white"/>
<path d="M11.9412 24.4286C11.9412 25.1387 11.3684 25.7143 10.6618 25.7143C9.95517 25.7143 9.38235 25.1387 9.38235 24.4286C9.38235 23.7185 9.95517 23.1429 10.6618 23.1429C11.3684 23.1429 11.9412 23.7185 11.9412 24.4286Z" fill="#002A25" fill-opacity="0.15"/>
<path d="M21.3235 24.4286C21.3235 25.1387 20.7507 25.7143 20.0441 25.7143C19.3375 25.7143 18.7647 25.1387 18.7647 24.4286C18.7647 23.7185 19.3375 23.1429 20.0441 23.1429C20.7507 23.1429 21.3235 23.7185 21.3235 24.4286Z" fill="white"/>
<path d="M21.3235 24.4286C21.3235 25.1387 20.7507 25.7143 20.0441 25.7143C19.3375 25.7143 18.7647 25.1387 18.7647 24.4286C18.7647 23.7185 19.3375 23.1429 20.0441 23.1429C20.7507 23.1429 21.3235 23.7185 21.3235 24.4286Z" fill="#002A25" fill-opacity="0.15"/>
<path d="M30.7059 24.4286C30.7059 25.1387 30.1331 25.7143 29.4265 25.7143C28.7199 25.7143 28.1471 25.1387 28.1471 24.4286C28.1471 23.7185 28.7199 23.1429 29.4265 23.1429C30.1331 23.1429 30.7059 23.7185 30.7059 24.4286Z" fill="white"/>
<path d="M30.7059 24.4286C30.7059 25.1387 30.1331 25.7143 29.4265 25.7143C28.7199 25.7143 28.1471 25.1387 28.1471 24.4286C28.1471 23.7185 28.7199 23.1429 29.4265 23.1429C30.1331 23.1429 30.7059 23.7185 30.7059 24.4286Z" fill="#002A25" fill-opacity="0.15"/>
<path d="M40.0882 24.4286C40.0882 25.1387 39.5154 25.7143 38.8088 25.7143C38.1022 25.7143 37.5294 25.1387 37.5294 24.4286C37.5294 23.7185 38.1022 23.1429 38.8088 23.1429C39.5154 23.1429 40.0882 23.7185 40.0882 24.4286Z" fill="white"/>
<path d="M40.0882 24.4286C40.0882 25.1387 39.5154 25.7143 38.8088 25.7143C38.1022 25.7143 37.5294 25.1387 37.5294 24.4286C37.5294 23.7185 38.1022 23.1429 38.8088 23.1429C39.5154 23.1429 40.0882 23.7185 40.0882 24.4286Z" fill="#002A25" fill-opacity="0.15"/>
<path d="M49.4706 24.4286C49.4706 25.1387 48.8978 25.7143 48.1912 25.7143C47.4846 25.7143 46.9118 25.1387 46.9118 24.4286C46.9118 23.7185 47.4846 23.1429 48.1912 23.1429C48.8978 23.1429 49.4706 23.7185 49.4706 24.4286Z" fill="white"/>
<path d="M49.4706 24.4286C49.4706 25.1387 48.8978 25.7143 48.1912 25.7143C47.4846 25.7143 46.9118 25.1387 46.9118 24.4286C46.9118 23.7185 47.4846 23.1429 48.1912 23.1429C48.8978 23.1429 49.4706 23.7185 49.4706 24.4286Z" fill="#002A25" fill-opacity="0.15"/>
<path d="M58.8529 24.4286C58.8529 25.1387 58.2801 25.7143 57.5735 25.7143C56.8669 25.7143 56.2941 25.1387 56.2941 24.4286C56.2941 23.7185 56.8669 23.1429 57.5735 23.1429C58.2801 23.1429 58.8529 23.7185 58.8529 24.4286Z" fill="white"/>
<path d="M58.8529 24.4286C58.8529 25.1387 58.2801 25.7143 57.5735 25.7143C56.8669 25.7143 56.2941 25.1387 56.2941 24.4286C56.2941 23.7185 56.8669 23.1429 57.5735 23.1429C58.2801 23.1429 58.8529 23.7185 58.8529 24.4286Z" fill="#002A25" fill-opacity="0.15"/>
<path d="M68.2353 24.4286C68.2353 25.1387 67.6625 25.7143 66.9559 25.7143C66.2493 25.7143 65.6765 25.1387 65.6765 24.4286C65.6765 23.7185 66.2493 23.1429 66.9559 23.1429C67.6625 23.1429 68.2353 23.7185 68.2353 24.4286Z" fill="white"/>
<path d="M68.2353 24.4286C68.2353 25.1387 67.6625 25.7143 66.9559 25.7143C66.2493 25.7143 65.6765 25.1387 65.6765 24.4286C65.6765 23.7185 66.2493 23.1429 66.9559 23.1429C67.6625 23.1429 68.2353 23.7185 68.2353 24.4286Z" fill="#002A25" fill-opacity="0.15"/>
<path d="M77.6177 24.4286C77.6177 25.1387 77.0448 25.7143 76.3382 25.7143C75.6316 25.7143 75.0588 25.1387 75.0588 24.4286C75.0588 23.7185 75.6316 23.1429 76.3382 23.1429C77.0448 23.1429 77.6177 23.7185 77.6177 24.4286Z" fill="white"/>
<path d="M77.6177 24.4286C77.6177 25.1387 77.0448 25.7143 76.3382 25.7143C75.6316 25.7143 75.0588 25.1387 75.0588 24.4286C75.0588 23.7185 75.6316 23.1429 76.3382 23.1429C77.0448 23.1429 77.6177 23.7185 77.6177 24.4286Z" fill="#002A25" fill-opacity="0.15"/>
<path d="M87 24.4286C87 25.1387 86.4272 25.7143 85.7206 25.7143C85.014 25.7143 84.4412 25.1387 84.4412 24.4286C84.4412 23.7185 85.014 23.1429 85.7206 23.1429C86.4272 23.1429 87 23.7185 87 24.4286Z" fill="white"/>
<path d="M87 24.4286C87 25.1387 86.4272 25.7143 85.7206 25.7143C85.014 25.7143 84.4412 25.1387 84.4412 24.4286C84.4412 23.7185 85.014 23.1429 85.7206 23.1429C86.4272 23.1429 87 23.7185 87 24.4286Z" fill="#002A25" fill-opacity="0.15"/>
<path d="M2.55882 32.1429C2.55882 32.8529 1.98601 33.4286 1.27941 33.4286C0.572812 33.4286 0 32.8529 0 32.1429C0 31.4328 0.572812 30.8571 1.27941 30.8571C1.98601 30.8571 2.55882 31.4328 2.55882 32.1429Z" fill="white"/>
<path d="M2.55882 32.1429C2.55882 32.8529 1.98601 33.4286 1.27941 33.4286C0.572812 33.4286 0 32.8529 0 32.1429C0 31.4328 0.572812 30.8571 1.27941 30.8571C1.98601 30.8571 2.55882 31.4328 2.55882 32.1429Z" fill="#002A25" fill-opacity="0.15"/>
<path d="M11.9412 32.1429C11.9412 32.8529 11.3684 33.4286 10.6618 33.4286C9.95517 33.4286 9.38235 32.8529 9.38235 32.1429C9.38235 31.4328 9.95517 30.8571 10.6618 30.8571C11.3684 30.8571 11.9412 31.4328 11.9412 32.1429Z" fill="white"/>
<path d="M11.9412 32.1429C11.9412 32.8529 11.3684 33.4286 10.6618 33.4286C9.95517 33.4286 9.38235 32.8529 9.38235 32.1429C9.38235 31.4328 9.95517 30.8571 10.6618 30.8571C11.3684 30.8571 11.9412 31.4328 11.9412 32.1429Z" fill="#002A25" fill-opacity="0.15"/>
<path d="M21.3235 32.1429C21.3235 32.8529 20.7507 33.4286 20.0441 33.4286C19.3375 33.4286 18.7647 32.8529 18.7647 32.1429C18.7647 31.4328 19.3375 30.8571 20.0441 30.8571C20.7507 30.8571 21.3235 31.4328 21.3235 32.1429Z" fill="white"/>
<path d="M21.3235 32.1429C21.3235 32.8529 20.7507 33.4286 20.0441 33.4286C19.3375 33.4286 18.7647 32.8529 18.7647 32.1429C18.7647 31.4328 19.3375 30.8571 20.0441 30.8571C20.7507 30.8571 21.3235 31.4328 21.3235 32.1429Z" fill="#002A25" fill-opacity="0.15"/>
<path d="M30.7059 32.1429C30.7059 32.8529 30.1331 33.4286 29.4265 33.4286C28.7199 33.4286 28.1471 32.8529 28.1471 32.1429C28.1471 31.4328 28.7199 30.8571 29.4265 30.8571C30.1331 30.8571 30.7059 31.4328 30.7059 32.1429Z" fill="white"/>
<path d="M30.7059 32.1429C30.7059 32.8529 30.1331 33.4286 29.4265 33.4286C28.7199 33.4286 28.1471 32.8529 28.1471 32.1429C28.1471 31.4328 28.7199 30.8571 29.4265 30.8571C30.1331 30.8571 30.7059 31.4328 30.7059 32.1429Z" fill="#002A25" fill-opacity="0.15"/>
<path d="M40.0882 32.1429C40.0882 32.8529 39.5154 33.4286 38.8088 33.4286C38.1022 33.4286 37.5294 32.8529 37.5294 32.1429C37.5294 31.4328 38.1022 30.8571 38.8088 30.8571C39.5154 30.8571 40.0882 31.4328 40.0882 32.1429Z" fill="white"/>
<path d="M40.0882 32.1429C40.0882 32.8529 39.5154 33.4286 38.8088 33.4286C38.1022 33.4286 37.5294 32.8529 37.5294 32.1429C37.5294 31.4328 38.1022 30.8571 38.8088 30.8571C39.5154 30.8571 40.0882 31.4328 40.0882 32.1429Z" fill="#002A25" fill-opacity="0.15"/>
<path d="M49.4706 32.1429C49.4706 32.8529 48.8978 33.4286 48.1912 33.4286C47.4846 33.4286 46.9118 32.8529 46.9118 32.1429C46.9118 31.4328 47.4846 30.8571 48.1912 30.8571C48.8978 30.8571 49.4706 31.4328 49.4706 32.1429Z" fill="white"/>
<path d="M49.4706 32.1429C49.4706 32.8529 48.8978 33.4286 48.1912 33.4286C47.4846 33.4286 46.9118 32.8529 46.9118 32.1429C46.9118 31.4328 47.4846 30.8571 48.1912 30.8571C48.8978 30.8571 49.4706 31.4328 49.4706 32.1429Z" fill="#002A25" fill-opacity="0.15"/>
<path d="M58.8529 32.1429C58.8529 32.8529 58.2801 33.4286 57.5735 33.4286C56.8669 33.4286 56.2941 32.8529 56.2941 32.1429C56.2941 31.4328 56.8669 30.8571 57.5735 30.8571C58.2801 30.8571 58.8529 31.4328 58.8529 32.1429Z" fill="white"/>
<path d="M58.8529 32.1429C58.8529 32.8529 58.2801 33.4286 57.5735 33.4286C56.8669 33.4286 56.2941 32.8529 56.2941 32.1429C56.2941 31.4328 56.8669 30.8571 57.5735 30.8571C58.2801 30.8571 58.8529 31.4328 58.8529 32.1429Z" fill="#002A25" fill-opacity="0.15"/>
<path d="M68.2353 32.1429C68.2353 32.8529 67.6625 33.4286 66.9559 33.4286C66.2493 33.4286 65.6765 32.8529 65.6765 32.1429C65.6765 31.4328 66.2493 30.8571 66.9559 30.8571C67.6625 30.8571 68.2353 31.4328 68.2353 32.1429Z" fill="white"/>
<path d="M68.2353 32.1429C68.2353 32.8529 67.6625 33.4286 66.9559 33.4286C66.2493 33.4286 65.6765 32.8529 65.6765 32.1429C65.6765 31.4328 66.2493 30.8571 66.9559 30.8571C67.6625 30.8571 68.2353 31.4328 68.2353 32.1429Z" fill="#002A25" fill-opacity="0.15"/>
<path d="M77.6177 32.1429C77.6177 32.8529 77.0448 33.4286 76.3382 33.4286C75.6316 33.4286 75.0588 32.8529 75.0588 32.1429C75.0588 31.4328 75.6316 30.8571 76.3382 30.8571C77.0448 30.8571 77.6177 31.4328 77.6177 32.1429Z" fill="white"/>
<path d="M77.6177 32.1429C77.6177 32.8529 77.0448 33.4286 76.3382 33.4286C75.6316 33.4286 75.0588 32.8529 75.0588 32.1429C75.0588 31.4328 75.6316 30.8571 76.3382 30.8571C77.0448 30.8571 77.6177 31.4328 77.6177 32.1429Z" fill="#002A25" fill-opacity="0.15"/>
<path d="M87 32.1429C87 32.8529 86.4272 33.4286 85.7206 33.4286C85.014 33.4286 84.4412 32.8529 84.4412 32.1429C84.4412 31.4328 85.014 30.8571 85.7206 30.8571C86.4272 30.8571 87 31.4328 87 32.1429Z" fill="white"/>
<path d="M87 32.1429C87 32.8529 86.4272 33.4286 85.7206 33.4286C85.014 33.4286 84.4412 32.8529 84.4412 32.1429C84.4412 31.4328 85.014 30.8571 85.7206 30.8571C86.4272 30.8571 87 31.4328 87 32.1429Z" fill="#002A25" fill-opacity="0.15"/>
<path d="M2.55882 39.8571C2.55882 40.5672 1.98601 41.1429 1.27941 41.1429C0.572812 41.1429 0 40.5672 0 39.8571C0 39.1471 0.572812 38.5714 1.27941 38.5714C1.98601 38.5714 2.55882 39.1471 2.55882 39.8571Z" fill="white"/>
<path d="M2.55882 39.8571C2.55882 40.5672 1.98601 41.1429 1.27941 41.1429C0.572812 41.1429 0 40.5672 0 39.8571C0 39.1471 0.572812 38.5714 1.27941 38.5714C1.98601 38.5714 2.55882 39.1471 2.55882 39.8571Z" fill="#002A25" fill-opacity="0.15"/>
<path d="M11.9412 39.8571C11.9412 40.5672 11.3684 41.1429 10.6618 41.1429C9.95517 41.1429 9.38235 40.5672 9.38235 39.8571C9.38235 39.1471 9.95517 38.5714 10.6618 38.5714C11.3684 38.5714 11.9412 39.1471 11.9412 39.8571Z" fill="white"/>
<path d="M11.9412 39.8571C11.9412 40.5672 11.3684 41.1429 10.6618 41.1429C9.95517 41.1429 9.38235 40.5672 9.38235 39.8571C9.38235 39.1471 9.95517 38.5714 10.6618 38.5714C11.3684 38.5714 11.9412 39.1471 11.9412 39.8571Z" fill="#002A25" fill-opacity="0.15"/>
<path d="M21.3235 39.8571C21.3235 40.5672 20.7507 41.1429 20.0441 41.1429C19.3375 41.1429 18.7647 40.5672 18.7647 39.8571C18.7647 39.1471 19.3375 38.5714 20.0441 38.5714C20.7507 38.5714 21.3235 39.1471 21.3235 39.8571Z" fill="white"/>
<path d="M21.3235 39.8571C21.3235 40.5672 20.7507 41.1429 20.0441 41.1429C19.3375 41.1429 18.7647 40.5672 18.7647 39.8571C18.7647 39.1471 19.3375 38.5714 20.0441 38.5714C20.7507 38.5714 21.3235 39.1471 21.3235 39.8571Z" fill="#002A25" fill-opacity="0.15"/>
<path d="M30.7059 39.8571C30.7059 40.5672 30.1331 41.1429 29.4265 41.1429C28.7199 41.1429 28.1471 40.5672 28.1471 39.8571C28.1471 39.1471 28.7199 38.5714 29.4265 38.5714C30.1331 38.5714 30.7059 39.1471 30.7059 39.8571Z" fill="white"/>
<path d="M30.7059 39.8571C30.7059 40.5672 30.1331 41.1429 29.4265 41.1429C28.7199 41.1429 28.1471 40.5672 28.1471 39.8571C28.1471 39.1471 28.7199 38.5714 29.4265 38.5714C30.1331 38.5714 30.7059 39.1471 30.7059 39.8571Z" fill="#002A25" fill-opacity="0.15"/>
<path d="M40.0882 39.8571C40.0882 40.5672 39.5154 41.1429 38.8088 41.1429C38.1022 41.1429 37.5294 40.5672 37.5294 39.8571C37.5294 39.1471 38.1022 38.5714 38.8088 38.5714C39.5154 38.5714 40.0882 39.1471 40.0882 39.8571Z" fill="white"/>
<path d="M40.0882 39.8571C40.0882 40.5672 39.5154 41.1429 38.8088 41.1429C38.1022 41.1429 37.5294 40.5672 37.5294 39.8571C37.5294 39.1471 38.1022 38.5714 38.8088 38.5714C39.5154 38.5714 40.0882 39.1471 40.0882 39.8571Z" fill="#002A25" fill-opacity="0.15"/>
<path d="M49.4706 39.8571C49.4706 40.5672 48.8978 41.1429 48.1912 41.1429C47.4846 41.1429 46.9118 40.5672 46.9118 39.8571C46.9118 39.1471 47.4846 38.5714 48.1912 38.5714C48.8978 38.5714 49.4706 39.1471 49.4706 39.8571Z" fill="white"/>
<path d="M49.4706 39.8571C49.4706 40.5672 48.8978 41.1429 48.1912 41.1429C47.4846 41.1429 46.9118 40.5672 46.9118 39.8571C46.9118 39.1471 47.4846 38.5714 48.1912 38.5714C48.8978 38.5714 49.4706 39.1471 49.4706 39.8571Z" fill="#002A25" fill-opacity="0.15"/>
<path d="M58.8529 39.8571C58.8529 40.5672 58.2801 41.1429 57.5735 41.1429C56.8669 41.1429 56.2941 40.5672 56.2941 39.8571C56.2941 39.1471 56.8669 38.5714 57.5735 38.5714C58.2801 38.5714 58.8529 39.1471 58.8529 39.8571Z" fill="white"/>
<path d="M58.8529 39.8571C58.8529 40.5672 58.2801 41.1429 57.5735 41.1429C56.8669 41.1429 56.2941 40.5672 56.2941 39.8571C56.2941 39.1471 56.8669 38.5714 57.5735 38.5714C58.2801 38.5714 58.8529 39.1471 58.8529 39.8571Z" fill="#002A25" fill-opacity="0.15"/>
<path d="M68.2353 39.8571C68.2353 40.5672 67.6625 41.1429 66.9559 41.1429C66.2493 41.1429 65.6765 40.5672 65.6765 39.8571C65.6765 39.1471 66.2493 38.5714 66.9559 38.5714C67.6625 38.5714 68.2353 39.1471 68.2353 39.8571Z" fill="white"/>
<path d="M68.2353 39.8571C68.2353 40.5672 67.6625 41.1429 66.9559 41.1429C66.2493 41.1429 65.6765 40.5672 65.6765 39.8571C65.6765 39.1471 66.2493 38.5714 66.9559 38.5714C67.6625 38.5714 68.2353 39.1471 68.2353 39.8571Z" fill="#002A25" fill-opacity="0.15"/>
<path d="M77.6177 39.8571C77.6177 40.5672 77.0448 41.1429 76.3382 41.1429C75.6316 41.1429 75.0588 40.5672 75.0588 39.8571C75.0588 39.1471 75.6316 38.5714 76.3382 38.5714C77.0448 38.5714 77.6177 39.1471 77.6177 39.8571Z" fill="white"/>
<path d="M77.6177 39.8571C77.6177 40.5672 77.0448 41.1429 76.3382 41.1429C75.6316 41.1429 75.0588 40.5672 75.0588 39.8571C75.0588 39.1471 75.6316 38.5714 76.3382 38.5714C77.0448 38.5714 77.6177 39.1471 77.6177 39.8571Z" fill="#002A25" fill-opacity="0.15"/>
<path d="M87 39.8571C87 40.5672 86.4272 41.1429 85.7206 41.1429C85.014 41.1429 84.4412 40.5672 84.4412 39.8571C84.4412 39.1471 85.014 38.5714 85.7206 38.5714C86.4272 38.5714 87 39.1471 87 39.8571Z" fill="white"/>
<path d="M87 39.8571C87 40.5672 86.4272 41.1429 85.7206 41.1429C85.014 41.1429 84.4412 40.5672 84.4412 39.8571C84.4412 39.1471 85.014 38.5714 85.7206 38.5714C86.4272 38.5714 87 39.1471 87 39.8571Z" fill="#002A25" fill-opacity="0.15"/>
<path d="M2.55882 47.5714C2.55882 48.2815 1.98601 48.8571 1.27941 48.8571C0.572812 48.8571 0 48.2815 0 47.5714C0 46.8614 0.572812 46.2857 1.27941 46.2857C1.98601 46.2857 2.55882 46.8614 2.55882 47.5714Z" fill="white"/>
<path d="M2.55882 47.5714C2.55882 48.2815 1.98601 48.8571 1.27941 48.8571C0.572812 48.8571 0 48.2815 0 47.5714C0 46.8614 0.572812 46.2857 1.27941 46.2857C1.98601 46.2857 2.55882 46.8614 2.55882 47.5714Z" fill="#002A25" fill-opacity="0.15"/>
<path d="M11.9412 47.5714C11.9412 48.2815 11.3684 48.8571 10.6618 48.8571C9.95517 48.8571 9.38235 48.2815 9.38235 47.5714C9.38235 46.8614 9.95517 46.2857 10.6618 46.2857C11.3684 46.2857 11.9412 46.8614 11.9412 47.5714Z" fill="white"/>
<path d="M11.9412 47.5714C11.9412 48.2815 11.3684 48.8571 10.6618 48.8571C9.95517 48.8571 9.38235 48.2815 9.38235 47.5714C9.38235 46.8614 9.95517 46.2857 10.6618 46.2857C11.3684 46.2857 11.9412 46.8614 11.9412 47.5714Z" fill="#002A25" fill-opacity="0.15"/>
<path d="M21.3235 47.5714C21.3235 48.2815 20.7507 48.8571 20.0441 48.8571C19.3375 48.8571 18.7647 48.2815 18.7647 47.5714C18.7647 46.8614 19.3375 46.2857 20.0441 46.2857C20.7507 46.2857 21.3235 46.8614 21.3235 47.5714Z" fill="white"/>
<path d="M21.3235 47.5714C21.3235 48.2815 20.7507 48.8571 20.0441 48.8571C19.3375 48.8571 18.7647 48.2815 18.7647 47.5714C18.7647 46.8614 19.3375 46.2857 20.0441 46.2857C20.7507 46.2857 21.3235 46.8614 21.3235 47.5714Z" fill="#002A25" fill-opacity="0.15"/>
<path d="M30.7059 47.5714C30.7059 48.2815 30.1331 48.8571 29.4265 48.8571C28.7199 48.8571 28.1471 48.2815 28.1471 47.5714C28.1471 46.8614 28.7199 46.2857 29.4265 46.2857C30.1331 46.2857 30.7059 46.8614 30.7059 47.5714Z" fill="white"/>
<path d="M30.7059 47.5714C30.7059 48.2815 30.1331 48.8571 29.4265 48.8571C28.7199 48.8571 28.1471 48.2815 28.1471 47.5714C28.1471 46.8614 28.7199 46.2857 29.4265 46.2857C30.1331 46.2857 30.7059 46.8614 30.7059 47.5714Z" fill="#002A25" fill-opacity="0.15"/>
<path d="M40.0882 47.5714C40.0882 48.2815 39.5154 48.8571 38.8088 48.8571C38.1022 48.8571 37.5294 48.2815 37.5294 47.5714C37.5294 46.8614 38.1022 46.2857 38.8088 46.2857C39.5154 46.2857 40.0882 46.8614 40.0882 47.5714Z" fill="white"/>
<path d="M40.0882 47.5714C40.0882 48.2815 39.5154 48.8571 38.8088 48.8571C38.1022 48.8571 37.5294 48.2815 37.5294 47.5714C37.5294 46.8614 38.1022 46.2857 38.8088 46.2857C39.5154 46.2857 40.0882 46.8614 40.0882 47.5714Z" fill="#002A25" fill-opacity="0.15"/>
<path d="M49.4706 47.5714C49.4706 48.2815 48.8978 48.8571 48.1912 48.8571C47.4846 48.8571 46.9118 48.2815 46.9118 47.5714C46.9118 46.8614 47.4846 46.2857 48.1912 46.2857C48.8978 46.2857 49.4706 46.8614 49.4706 47.5714Z" fill="white"/>
<path d="M49.4706 47.5714C49.4706 48.2815 48.8978 48.8571 48.1912 48.8571C47.4846 48.8571 46.9118 48.2815 46.9118 47.5714C46.9118 46.8614 47.4846 46.2857 48.1912 46.2857C48.8978 46.2857 49.4706 46.8614 49.4706 47.5714Z" fill="#002A25" fill-opacity="0.15"/>
<path d="M58.8529 47.5714C58.8529 48.2815 58.2801 48.8571 57.5735 48.8571C56.8669 48.8571 56.2941 48.2815 56.2941 47.5714C56.2941 46.8614 56.8669 46.2857 57.5735 46.2857C58.2801 46.2857 58.8529 46.8614 58.8529 47.5714Z" fill="white"/>
<path d="M58.8529 47.5714C58.8529 48.2815 58.2801 48.8571 57.5735 48.8571C56.8669 48.8571 56.2941 48.2815 56.2941 47.5714C56.2941 46.8614 56.8669 46.2857 57.5735 46.2857C58.2801 46.2857 58.8529 46.8614 58.8529 47.5714Z" fill="#002A25" fill-opacity="0.15"/>
<path d="M68.2353 47.5714C68.2353 48.2815 67.6625 48.8571 66.9559 48.8571C66.2493 48.8571 65.6765 48.2815 65.6765 47.5714C65.6765 46.8614 66.2493 46.2857 66.9559 46.2857C67.6625 46.2857 68.2353 46.8614 68.2353 47.5714Z" fill="white"/>
<path d="M68.2353 47.5714C68.2353 48.2815 67.6625 48.8571 66.9559 48.8571C66.2493 48.8571 65.6765 48.2815 65.6765 47.5714C65.6765 46.8614 66.2493 46.2857 66.9559 46.2857C67.6625 46.2857 68.2353 46.8614 68.2353 47.5714Z" fill="#002A25" fill-opacity="0.15"/>
<path d="M77.6177 47.5714C77.6177 48.2815 77.0448 48.8571 76.3382 48.8571C75.6316 48.8571 75.0588 48.2815 75.0588 47.5714C75.0588 46.8614 75.6316 46.2857 76.3382 46.2857C77.0448 46.2857 77.6177 46.8614 77.6177 47.5714Z" fill="white"/>
<path d="M77.6177 47.5714C77.6177 48.2815 77.0448 48.8571 76.3382 48.8571C75.6316 48.8571 75.0588 48.2815 75.0588 47.5714C75.0588 46.8614 75.6316 46.2857 76.3382 46.2857C77.0448 46.2857 77.6177 46.8614 77.6177 47.5714Z" fill="#002A25" fill-opacity="0.15"/>
<path d="M87 47.5714C87 48.2815 86.4272 48.8571 85.7206 48.8571C85.014 48.8571 84.4412 48.2815 84.4412 47.5714C84.4412 46.8614 85.014 46.2857 85.7206 46.2857C86.4272 46.2857 87 46.8614 87 47.5714Z" fill="white"/>
<path d="M87 47.5714C87 48.2815 86.4272 48.8571 85.7206 48.8571C85.014 48.8571 84.4412 48.2815 84.4412 47.5714C84.4412 46.8614 85.014 46.2857 85.7206 46.2857C86.4272 46.2857 87 46.8614 87 47.5714Z" fill="#002A25" fill-opacity="0.15"/>
<path d="M2.55882 55.2857C2.55882 55.9958 1.98601 56.5714 1.27941 56.5714C0.572812 56.5714 0 55.9958 0 55.2857C0 54.5756 0.572812 54 1.27941 54C1.98601 54 2.55882 54.5756 2.55882 55.2857Z" fill="white"/>
<path d="M2.55882 55.2857C2.55882 55.9958 1.98601 56.5714 1.27941 56.5714C0.572812 56.5714 0 55.9958 0 55.2857C0 54.5756 0.572812 54 1.27941 54C1.98601 54 2.55882 54.5756 2.55882 55.2857Z" fill="#002A25" fill-opacity="0.15"/>
<path d="M11.9412 55.2857C11.9412 55.9958 11.3684 56.5714 10.6618 56.5714C9.95517 56.5714 9.38235 55.9958 9.38235 55.2857C9.38235 54.5756 9.95517 54 10.6618 54C11.3684 54 11.9412 54.5756 11.9412 55.2857Z" fill="white"/>
<path d="M11.9412 55.2857C11.9412 55.9958 11.3684 56.5714 10.6618 56.5714C9.95517 56.5714 9.38235 55.9958 9.38235 55.2857C9.38235 54.5756 9.95517 54 10.6618 54C11.3684 54 11.9412 54.5756 11.9412 55.2857Z" fill="#002A25" fill-opacity="0.15"/>
<path d="M21.3235 55.2857C21.3235 55.9958 20.7507 56.5714 20.0441 56.5714C19.3375 56.5714 18.7647 55.9958 18.7647 55.2857C18.7647 54.5756 19.3375 54 20.0441 54C20.7507 54 21.3235 54.5756 21.3235 55.2857Z" fill="white"/>
<path d="M21.3235 55.2857C21.3235 55.9958 20.7507 56.5714 20.0441 56.5714C19.3375 56.5714 18.7647 55.9958 18.7647 55.2857C18.7647 54.5756 19.3375 54 20.0441 54C20.7507 54 21.3235 54.5756 21.3235 55.2857Z" fill="#002A25" fill-opacity="0.15"/>
<path d="M30.7059 55.2857C30.7059 55.9958 30.1331 56.5714 29.4265 56.5714C28.7199 56.5714 28.1471 55.9958 28.1471 55.2857C28.1471 54.5756 28.7199 54 29.4265 54C30.1331 54 30.7059 54.5756 30.7059 55.2857Z" fill="white"/>
<path d="M30.7059 55.2857C30.7059 55.9958 30.1331 56.5714 29.4265 56.5714C28.7199 56.5714 28.1471 55.9958 28.1471 55.2857C28.1471 54.5756 28.7199 54 29.4265 54C30.1331 54 30.7059 54.5756 30.7059 55.2857Z" fill="#002A25" fill-opacity="0.15"/>
<path d="M40.0882 55.2857C40.0882 55.9958 39.5154 56.5714 38.8088 56.5714C38.1022 56.5714 37.5294 55.9958 37.5294 55.2857C37.5294 54.5756 38.1022 54 38.8088 54C39.5154 54 40.0882 54.5756 40.0882 55.2857Z" fill="white"/>
<path d="M40.0882 55.2857C40.0882 55.9958 39.5154 56.5714 38.8088 56.5714C38.1022 56.5714 37.5294 55.9958 37.5294 55.2857C37.5294 54.5756 38.1022 54 38.8088 54C39.5154 54 40.0882 54.5756 40.0882 55.2857Z" fill="#002A25" fill-opacity="0.15"/>
<path d="M49.4706 55.2857C49.4706 55.9958 48.8978 56.5714 48.1912 56.5714C47.4846 56.5714 46.9118 55.9958 46.9118 55.2857C46.9118 54.5756 47.4846 54 48.1912 54C48.8978 54 49.4706 54.5756 49.4706 55.2857Z" fill="white"/>
<path d="M49.4706 55.2857C49.4706 55.9958 48.8978 56.5714 48.1912 56.5714C47.4846 56.5714 46.9118 55.9958 46.9118 55.2857C46.9118 54.5756 47.4846 54 48.1912 54C48.8978 54 49.4706 54.5756 49.4706 55.2857Z" fill="#002A25" fill-opacity="0.15"/>
<path d="M58.8529 55.2857C58.8529 55.9958 58.2801 56.5714 57.5735 56.5714C56.8669 56.5714 56.2941 55.9958 56.2941 55.2857C56.2941 54.5756 56.8669 54 57.5735 54C58.2801 54 58.8529 54.5756 58.8529 55.2857Z" fill="white"/>
<path d="M58.8529 55.2857C58.8529 55.9958 58.2801 56.5714 57.5735 56.5714C56.8669 56.5714 56.2941 55.9958 56.2941 55.2857C56.2941 54.5756 56.8669 54 57.5735 54C58.2801 54 58.8529 54.5756 58.8529 55.2857Z" fill="#002A25" fill-opacity="0.15"/>
<path d="M68.2353 55.2857C68.2353 55.9958 67.6625 56.5714 66.9559 56.5714C66.2493 56.5714 65.6765 55.9958 65.6765 55.2857C65.6765 54.5756 66.2493 54 66.9559 54C67.6625 54 68.2353 54.5756 68.2353 55.2857Z" fill="white"/>
<path d="M68.2353 55.2857C68.2353 55.9958 67.6625 56.5714 66.9559 56.5714C66.2493 56.5714 65.6765 55.9958 65.6765 55.2857C65.6765 54.5756 66.2493 54 66.9559 54C67.6625 54 68.2353 54.5756 68.2353 55.2857Z" fill="#002A25" fill-opacity="0.15"/>
<path d="M77.6177 55.2857C77.6177 55.9958 77.0448 56.5714 76.3382 56.5714C75.6316 56.5714 75.0588 55.9958 75.0588 55.2857C75.0588 54.5756 75.6316 54 76.3382 54C77.0448 54 77.6177 54.5756 77.6177 55.2857Z" fill="white"/>
<path d="M77.6177 55.2857C77.6177 55.9958 77.0448 56.5714 76.3382 56.5714C75.6316 56.5714 75.0588 55.9958 75.0588 55.2857C75.0588 54.5756 75.6316 54 76.3382 54C77.0448 54 77.6177 54.5756 77.6177 55.2857Z" fill="#002A25" fill-opacity="0.15"/>
<path d="M87 55.2857C87 55.9958 86.4272 56.5714 85.7206 56.5714C85.014 56.5714 84.4412 55.9958 84.4412 55.2857C84.4412 54.5756 85.014 54 85.7206 54C86.4272 54 87 54.5756 87 55.2857Z" fill="white"/>
<path d="M87 55.2857C87 55.9958 86.4272 56.5714 85.7206 56.5714C85.014 56.5714 84.4412 55.9958 84.4412 55.2857C84.4412 54.5756 85.014 54 85.7206 54C86.4272 54 87 54.5756 87 55.2857Z" fill="#002A25" fill-opacity="0.15"/>
<path d="M2.55882 63C2.55882 63.7101 1.98601 64.2857 1.27941 64.2857C0.572812 64.2857 0 63.7101 0 63C0 62.2899 0.572812 61.7143 1.27941 61.7143C1.98601 61.7143 2.55882 62.2899 2.55882 63Z" fill="white"/>
<path d="M2.55882 63C2.55882 63.7101 1.98601 64.2857 1.27941 64.2857C0.572812 64.2857 0 63.7101 0 63C0 62.2899 0.572812 61.7143 1.27941 61.7143C1.98601 61.7143 2.55882 62.2899 2.55882 63Z" fill="#002A25" fill-opacity="0.15"/>
<path d="M11.9412 63C11.9412 63.7101 11.3684 64.2857 10.6618 64.2857C9.95517 64.2857 9.38235 63.7101 9.38235 63C9.38235 62.2899 9.95517 61.7143 10.6618 61.7143C11.3684 61.7143 11.9412 62.2899 11.9412 63Z" fill="white"/>
<path d="M11.9412 63C11.9412 63.7101 11.3684 64.2857 10.6618 64.2857C9.95517 64.2857 9.38235 63.7101 9.38235 63C9.38235 62.2899 9.95517 61.7143 10.6618 61.7143C11.3684 61.7143 11.9412 62.2899 11.9412 63Z" fill="#002A25" fill-opacity="0.15"/>
<path d="M21.3235 63C21.3235 63.7101 20.7507 64.2857 20.0441 64.2857C19.3375 64.2857 18.7647 63.7101 18.7647 63C18.7647 62.2899 19.3375 61.7143 20.0441 61.7143C20.7507 61.7143 21.3235 62.2899 21.3235 63Z" fill="white"/>
<path d="M21.3235 63C21.3235 63.7101 20.7507 64.2857 20.0441 64.2857C19.3375 64.2857 18.7647 63.7101 18.7647 63C18.7647 62.2899 19.3375 61.7143 20.0441 61.7143C20.7507 61.7143 21.3235 62.2899 21.3235 63Z" fill="#002A25" fill-opacity="0.15"/>
<path d="M30.7059 63C30.7059 63.7101 30.1331 64.2857 29.4265 64.2857C28.7199 64.2857 28.1471 63.7101 28.1471 63C28.1471 62.2899 28.7199 61.7143 29.4265 61.7143C30.1331 61.7143 30.7059 62.2899 30.7059 63Z" fill="white"/>
<path d="M30.7059 63C30.7059 63.7101 30.1331 64.2857 29.4265 64.2857C28.7199 64.2857 28.1471 63.7101 28.1471 63C28.1471 62.2899 28.7199 61.7143 29.4265 61.7143C30.1331 61.7143 30.7059 62.2899 30.7059 63Z" fill="#002A25" fill-opacity="0.15"/>
<path d="M40.0882 63C40.0882 63.7101 39.5154 64.2857 38.8088 64.2857C38.1022 64.2857 37.5294 63.7101 37.5294 63C37.5294 62.2899 38.1022 61.7143 38.8088 61.7143C39.5154 61.7143 40.0882 62.2899 40.0882 63Z" fill="white"/>
<path d="M40.0882 63C40.0882 63.7101 39.5154 64.2857 38.8088 64.2857C38.1022 64.2857 37.5294 63.7101 37.5294 63C37.5294 62.2899 38.1022 61.7143 38.8088 61.7143C39.5154 61.7143 40.0882 62.2899 40.0882 63Z" fill="#002A25" fill-opacity="0.15"/>
<path d="M49.4706 63C49.4706 63.7101 48.8978 64.2857 48.1912 64.2857C47.4846 64.2857 46.9118 63.7101 46.9118 63C46.9118 62.2899 47.4846 61.7143 48.1912 61.7143C48.8978 61.7143 49.4706 62.2899 49.4706 63Z" fill="white"/>
<path d="M49.4706 63C49.4706 63.7101 48.8978 64.2857 48.1912 64.2857C47.4846 64.2857 46.9118 63.7101 46.9118 63C46.9118 62.2899 47.4846 61.7143 48.1912 61.7143C48.8978 61.7143 49.4706 62.2899 49.4706 63Z" fill="#002A25" fill-opacity="0.15"/>
<path d="M58.8529 63C58.8529 63.7101 58.2801 64.2857 57.5735 64.2857C56.8669 64.2857 56.2941 63.7101 56.2941 63C56.2941 62.2899 56.8669 61.7143 57.5735 61.7143C58.2801 61.7143 58.8529 62.2899 58.8529 63Z" fill="white"/>
<path d="M58.8529 63C58.8529 63.7101 58.2801 64.2857 57.5735 64.2857C56.8669 64.2857 56.2941 63.7101 56.2941 63C56.2941 62.2899 56.8669 61.7143 57.5735 61.7143C58.2801 61.7143 58.8529 62.2899 58.8529 63Z" fill="#002A25" fill-opacity="0.15"/>
<path d="M68.2353 63C68.2353 63.7101 67.6625 64.2857 66.9559 64.2857C66.2493 64.2857 65.6765 63.7101 65.6765 63C65.6765 62.2899 66.2493 61.7143 66.9559 61.7143C67.6625 61.7143 68.2353 62.2899 68.2353 63Z" fill="white"/>
<path d="M68.2353 63C68.2353 63.7101 67.6625 64.2857 66.9559 64.2857C66.2493 64.2857 65.6765 63.7101 65.6765 63C65.6765 62.2899 66.2493 61.7143 66.9559 61.7143C67.6625 61.7143 68.2353 62.2899 68.2353 63Z" fill="#002A25" fill-opacity="0.15"/>
<path d="M77.6177 63C77.6177 63.7101 77.0448 64.2857 76.3382 64.2857C75.6316 64.2857 75.0588 63.7101 75.0588 63C75.0588 62.2899 75.6316 61.7143 76.3382 61.7143C77.0448 61.7143 77.6177 62.2899 77.6177 63Z" fill="white"/>
<path d="M77.6177 63C77.6177 63.7101 77.0448 64.2857 76.3382 64.2857C75.6316 64.2857 75.0588 63.7101 75.0588 63C75.0588 62.2899 75.6316 61.7143 76.3382 61.7143C77.0448 61.7143 77.6177 62.2899 77.6177 63Z" fill="#002A25" fill-opacity="0.15"/>
<path d="M87 63C87 63.7101 86.4272 64.2857 85.7206 64.2857C85.014 64.2857 84.4412 63.7101 84.4412 63C84.4412 62.2899 85.014 61.7143 85.7206 61.7143C86.4272 61.7143 87 62.2899 87 63Z" fill="white"/>
<path d="M87 63C87 63.7101 86.4272 64.2857 85.7206 64.2857C85.014 64.2857 84.4412 63.7101 84.4412 63C84.4412 62.2899 85.014 61.7143 85.7206 61.7143C86.4272 61.7143 87 62.2899 87 63Z" fill="#002A25" fill-opacity="0.15"/>
<path d="M2.55882 70.7143C2.55882 71.4244 1.98601 72 1.27941 72C0.572812 72 0 71.4244 0 70.7143C0 70.0042 0.572812 69.4286 1.27941 69.4286C1.98601 69.4286 2.55882 70.0042 2.55882 70.7143Z" fill="white"/>
<path d="M2.55882 70.7143C2.55882 71.4244 1.98601 72 1.27941 72C0.572812 72 0 71.4244 0 70.7143C0 70.0042 0.572812 69.4286 1.27941 69.4286C1.98601 69.4286 2.55882 70.0042 2.55882 70.7143Z" fill="#002A25" fill-opacity="0.15"/>
<path d="M11.9412 70.7143C11.9412 71.4244 11.3684 72 10.6618 72C9.95517 72 9.38235 71.4244 9.38235 70.7143C9.38235 70.0042 9.95517 69.4286 10.6618 69.4286C11.3684 69.4286 11.9412 70.0042 11.9412 70.7143Z" fill="white"/>
<path d="M11.9412 70.7143C11.9412 71.4244 11.3684 72 10.6618 72C9.95517 72 9.38235 71.4244 9.38235 70.7143C9.38235 70.0042 9.95517 69.4286 10.6618 69.4286C11.3684 69.4286 11.9412 70.0042 11.9412 70.7143Z" fill="#002A25" fill-opacity="0.15"/>
<path d="M21.3235 70.7143C21.3235 71.4244 20.7507 72 20.0441 72C19.3375 72 18.7647 71.4244 18.7647 70.7143C18.7647 70.0042 19.3375 69.4286 20.0441 69.4286C20.7507 69.4286 21.3235 70.0042 21.3235 70.7143Z" fill="white"/>
<path d="M21.3235 70.7143C21.3235 71.4244 20.7507 72 20.0441 72C19.3375 72 18.7647 71.4244 18.7647 70.7143C18.7647 70.0042 19.3375 69.4286 20.0441 69.4286C20.7507 69.4286 21.3235 70.0042 21.3235 70.7143Z" fill="#002A25" fill-opacity="0.15"/>
<path d="M30.7059 70.7143C30.7059 71.4244 30.1331 72 29.4265 72C28.7199 72 28.1471 71.4244 28.1471 70.7143C28.1471 70.0042 28.7199 69.4286 29.4265 69.4286C30.1331 69.4286 30.7059 70.0042 30.7059 70.7143Z" fill="white"/>
<path d="M30.7059 70.7143C30.7059 71.4244 30.1331 72 29.4265 72C28.7199 72 28.1471 71.4244 28.1471 70.7143C28.1471 70.0042 28.7199 69.4286 29.4265 69.4286C30.1331 69.4286 30.7059 70.0042 30.7059 70.7143Z" fill="#002A25" fill-opacity="0.15"/>
<path d="M40.0882 70.7143C40.0882 71.4244 39.5154 72 38.8088 72C38.1022 72 37.5294 71.4244 37.5294 70.7143C37.5294 70.0042 38.1022 69.4286 38.8088 69.4286C39.5154 69.4286 40.0882 70.0042 40.0882 70.7143Z" fill="white"/>
<path d="M40.0882 70.7143C40.0882 71.4244 39.5154 72 38.8088 72C38.1022 72 37.5294 71.4244 37.5294 70.7143C37.5294 70.0042 38.1022 69.4286 38.8088 69.4286C39.5154 69.4286 40.0882 70.0042 40.0882 70.7143Z" fill="#002A25" fill-opacity="0.15"/>
<path d="M49.4706 70.7143C49.4706 71.4244 48.8978 72 48.1912 72C47.4846 72 46.9118 71.4244 46.9118 70.7143C46.9118 70.0042 47.4846 69.4286 48.1912 69.4286C48.8978 69.4286 49.4706 70.0042 49.4706 70.7143Z" fill="white"/>
<path d="M49.4706 70.7143C49.4706 71.4244 48.8978 72 48.1912 72C47.4846 72 46.9118 71.4244 46.9118 70.7143C46.9118 70.0042 47.4846 69.4286 48.1912 69.4286C48.8978 69.4286 49.4706 70.0042 49.4706 70.7143Z" fill="#002A25" fill-opacity="0.15"/>
<path d="M58.8529 70.7143C58.8529 71.4244 58.2801 72 57.5735 72C56.8669 72 56.2941 71.4244 56.2941 70.7143C56.2941 70.0042 56.8669 69.4286 57.5735 69.4286C58.2801 69.4286 58.8529 70.0042 58.8529 70.7143Z" fill="white"/>
<path d="M58.8529 70.7143C58.8529 71.4244 58.2801 72 57.5735 72C56.8669 72 56.2941 71.4244 56.2941 70.7143C56.2941 70.0042 56.8669 69.4286 57.5735 69.4286C58.2801 69.4286 58.8529 70.0042 58.8529 70.7143Z" fill="#002A25" fill-opacity="0.15"/>
<path d="M68.2353 70.7143C68.2353 71.4244 67.6625 72 66.9559 72C66.2493 72 65.6765 71.4244 65.6765 70.7143C65.6765 70.0042 66.2493 69.4286 66.9559 69.4286C67.6625 69.4286 68.2353 70.0042 68.2353 70.7143Z" fill="white"/>
<path d="M68.2353 70.7143C68.2353 71.4244 67.6625 72 66.9559 72C66.2493 72 65.6765 71.4244 65.6765 70.7143C65.6765 70.0042 66.2493 69.4286 66.9559 69.4286C67.6625 69.4286 68.2353 70.0042 68.2353 70.7143Z" fill="#002A25" fill-opacity="0.15"/>
<path d="M77.6177 70.7143C77.6177 71.4244 77.0448 72 76.3382 72C75.6316 72 75.0588 71.4244 75.0588 70.7143C75.0588 70.0042 75.6316 69.4286 76.3382 69.4286C77.0448 69.4286 77.6177 70.0042 77.6177 70.7143Z" fill="white"/>
<path d="M77.6177 70.7143C77.6177 71.4244 77.0448 72 76.3382 72C75.6316 72 75.0588 71.4244 75.0588 70.7143C75.0588 70.0042 75.6316 69.4286 76.3382 69.4286C77.0448 69.4286 77.6177 70.0042 77.6177 70.7143Z" fill="#002A25" fill-opacity="0.15"/>
<path d="M87 70.7143C87 71.4244 86.4272 72 85.7206 72C85.014 72 84.4412 71.4244 84.4412 70.7143C84.4412 70.0042 85.014 69.4286 85.7206 69.4286C86.4272 69.4286 87 70.0042 87 70.7143Z" fill="white"/>
<path d="M87 70.7143C87 71.4244 86.4272 72 85.7206 72C85.014 72 84.4412 71.4244 84.4412 70.7143C84.4412 70.0042 85.014 69.4286 85.7206 69.4286C86.4272 69.4286 87 70.0042 87 70.7143Z" fill="#002A25" fill-opacity="0.15"/>
</svg>
