<svg width="14" height="14" viewBox="0 0 14 14" fill="none" xmlns="http://www.w3.org/2000/svg">
<path d="M3.1027 8.46037L2.61537 10.2796L0.83423 10.3173C0.30193 9.32998 0 8.20039 0 7C0 5.83923 0.282297 4.7446 0.782687 3.78076H0.78307L2.36879 4.07148L3.06343 5.64768C2.91804 6.07154 2.8388 6.52654 2.8388 7C2.83886 7.51384 2.93193 8.00616 3.1027 8.46037Z" fill="#FBBB00"/>
<path d="M13.8776 5.69238C13.958 6.11583 13.9999 6.55314 13.9999 7.00007C13.9999 7.50123 13.9472 7.99008 13.8468 8.46162C13.5061 10.0662 12.6157 11.4674 11.3822 12.4589L11.3819 12.4585L9.38457 12.3566L9.10189 10.592C9.92034 10.112 10.56 9.36085 10.8969 8.46162H7.15381V5.69238H10.9515H13.8776Z" fill="#518EF8"/>
<path d="M11.3817 12.4585L11.3821 12.4589C10.1825 13.4231 8.65859 14 6.99976 14C4.33399 14 2.0163 12.5101 0.833984 10.3174L3.10245 8.46045C3.69359 10.0381 5.21552 11.1612 6.99976 11.1612C7.76667 11.1612 8.48515 10.9539 9.10167 10.592L11.3817 12.4585Z" fill="#28B446"/>
<path d="M11.4681 1.61153L9.20041 3.46806C8.56234 3.06923 7.80809 2.83883 7.00003 2.83883C5.17541 2.83883 3.62502 4.01343 3.06348 5.64769L0.783098 3.78077H0.782715C1.94772 1.53461 4.29464 0 7.00003 0C8.69848 0 10.2558 0.605008 11.4681 1.61153Z" fill="#F14336"/>
</svg>
