<svg width="70" height="32" viewBox="0 0 70 32" fill="none" xmlns="http://www.w3.org/2000/svg">
<mask id="path-1-outside-1_3_199" maskUnits="userSpaceOnUse" x="0" y="0" width="70" height="32" fill="black">
<rect fill="white" width="70" height="32"/>
<path d="M2.63191 27.9413H4.70588V29.7147C4.70588 30.4234 5.36121 31 6.1661 31H12.9711C13.7764 31 14.4313 30.4234 14.4313 29.7147V27.9413H16.783C17.6827 27.9413 18.4149 27.2636 18.4149 26.4301V5.53553C18.4149 4.70244 17.6831 4.02431 16.783 4.02431H14.4313V2.2853C14.4313 1.57656 13.776 1 12.9711 1H6.1661C5.36082 1 4.70588 1.57656 4.70588 2.2853V4.02431H2.63191C1.73224 4.02431 1 4.70206 1 5.53553V26.4301C1 27.2636 1.73224 27.9413 2.63191 27.9413ZM17.638 13.1712V14.5185H1.77691V13.1712H17.638ZM1.77691 12.4243V11.0767H17.638V12.4243H1.77691ZM17.638 15.2657V16.613H1.77691V15.2657H17.638ZM17.638 17.3598V18.7071H1.77691V17.3598H17.638ZM17.638 19.4543V20.8016H1.77691V19.4543H17.638ZM17.638 21.5484V22.8961H1.77691V21.5484H17.638ZM17.638 10.3298H1.77691V8.98255H17.638V10.3298ZM1.77691 23.6429H17.638V24.9902H1.77691V23.6429ZM17.638 8.23571H1.77691V6.88805H17.638V8.23571ZM13.6544 29.7147C13.6544 30.0116 13.3479 30.2532 12.9711 30.2532H6.1661C5.78929 30.2532 5.4828 30.0116 5.4828 29.7147V27.9413H13.6544V29.7147ZM16.7834 27.1945H2.63191C2.16032 27.1945 1.77691 26.8517 1.77691 26.4301V25.7374H17.638V26.4301C17.638 26.8517 17.2546 27.1945 16.7834 27.1945ZM5.4828 2.2853C5.4828 1.98844 5.78929 1.74684 6.1661 1.74684H12.9711C13.3479 1.74684 13.6544 1.98844 13.6544 2.2853V4.02431H5.4828V2.2853ZM2.63191 4.77115H16.783C17.2542 4.77115 17.638 5.11394 17.638 5.53553V6.14121H1.77691V5.53553C1.77691 5.11394 2.16032 4.77115 2.63191 4.77115Z"/>
<path d="M22.9942 15.9557C22.6507 15.9557 22.3723 15.6759 22.3723 15.3307V14.5201C22.3723 14.1749 22.6507 13.8951 22.9942 13.8951H32.1196C32.4631 13.8951 32.7416 14.1749 32.7416 14.5201V15.3307C32.7416 15.6759 32.4631 15.9557 32.1196 15.9557H29.3499C29.0064 15.9557 28.728 16.2355 28.728 16.5807V26.61C28.728 26.9551 28.4495 27.235 28.106 27.235H27.0176C26.6741 27.235 26.3956 26.9551 26.3956 26.61V16.5807C26.3956 16.2355 26.1171 15.9557 25.7736 15.9557H22.9942Z"/>
<path d="M31.6119 18.3871C31.4876 17.9848 31.7868 17.5768 32.2059 17.5768H33.0618C33.3384 17.5768 33.5818 17.7604 33.659 18.0273L34.9986 22.6582C35.1693 23.2483 35.9961 23.2626 36.1868 22.6787L37.7128 18.0069C37.7966 17.7502 38.035 17.5768 38.3038 17.5768H39.2299C39.4986 17.5768 39.737 17.7502 39.8208 18.0069L41.3468 22.6787C41.5375 23.2625 42.3643 23.2483 42.535 22.6582L43.8746 18.0273C43.9518 17.7604 44.1952 17.5768 44.4718 17.5768H45.3277C45.7468 17.5768 46.046 17.9848 45.9217 18.3871L43.3244 26.7953C43.2436 27.0568 43.0029 27.235 42.7304 27.235H41.4481C41.1767 27.235 40.9367 27.0582 40.855 26.7982L39.004 20.9096C38.9308 20.6767 38.6028 20.6767 38.5296 20.9096L36.6786 26.7982C36.5969 27.0582 36.3569 27.235 36.0856 27.235H34.8032C34.5307 27.235 34.29 27.0568 34.2092 26.7953L31.6119 18.3871Z"/>
<path d="M46.5025 16.0143C46.2498 15.7604 46.1235 15.4544 46.1235 15.0963C46.1235 14.7382 46.2498 14.4322 46.5025 14.1783C46.7616 13.9244 47.0661 13.7975 47.416 13.7975C47.7788 13.7975 48.0833 13.9244 48.3295 14.1783C48.5821 14.4322 48.7085 14.7382 48.7085 15.0963C48.7085 15.4544 48.5821 15.7604 48.3295 16.0143C48.0833 16.2682 47.7788 16.3951 47.416 16.3951C47.0661 16.3951 46.7616 16.2682 46.5025 16.0143ZM46.9981 27.235C46.6546 27.235 46.3761 26.9551 46.3761 26.61V18.2018C46.3761 17.8566 46.6546 17.5768 46.9981 17.5768H47.8436C48.1871 17.5768 48.4655 17.8566 48.4655 18.2018V26.61C48.4655 26.9551 48.1871 27.235 47.8436 27.235H46.9981Z"/>
<path d="M50.5549 27.235C50.2114 27.235 49.933 26.9551 49.933 26.61V18.2018C49.933 17.8566 50.2114 17.5768 50.5549 17.5768H51.4004C51.7439 17.5768 52.0224 17.8566 52.0224 18.2018V18.8951C52.3852 18.4654 52.8646 18.0976 53.4607 17.7916C54.0567 17.4856 54.7046 17.3326 55.4043 17.3326C56.4279 17.3326 57.2022 17.5996 57.7269 18.1334C58.2517 18.6673 58.5141 19.4355 58.5141 20.4381V26.61C58.5141 26.9551 58.2356 27.235 57.8921 27.235H57.0467C56.7032 27.235 56.4247 26.9551 56.4247 26.61V21.1998C56.4247 20.4837 56.2563 19.9726 55.9194 19.6666C55.5889 19.3541 55.1128 19.1979 54.4908 19.1979C53.9854 19.1979 53.5125 19.3248 53.0719 19.5787C52.6969 19.7893 52.3875 20.0424 52.1439 20.338C52.0612 20.4383 52.0224 20.5667 52.0224 20.697V26.61C52.0224 26.9551 51.7439 27.235 51.4004 27.235H50.5549Z"/>
<path d="M59.3887 22.3912C59.3887 21.4667 59.5928 20.6204 60.001 19.8522C60.4156 19.0774 60.9987 18.4654 61.7503 18.0162C62.5018 17.5605 63.3408 17.3326 64.2673 17.3326C65.6926 17.3326 66.8361 17.8274 67.6978 18.817C68.5659 19.8001 69 21.0598 69 22.5963C69 22.8714 68.7781 23.0943 68.5044 23.0943H61.8533C61.705 23.0943 61.5888 23.2242 61.6168 23.3705C61.7397 24.0108 62.0369 24.5535 62.5083 24.9986C63.0525 25.4999 63.7619 25.7506 64.6365 25.7506C65.1225 25.7506 65.6148 25.6594 66.1137 25.4772C66.3569 25.3863 66.5798 25.2789 66.7825 25.1548C67.1135 24.9523 67.5707 24.9899 67.7919 25.3097L68.0165 25.6345C68.1912 25.887 68.1597 26.2336 67.9151 26.4182C67.5301 26.7087 67.0916 26.9419 66.5996 27.1178C65.9258 27.3587 65.2002 27.4791 64.4227 27.4791C62.965 27.4791 61.76 27.0104 60.8076 26.0729C59.8617 25.1289 59.3887 23.9016 59.3887 22.3912ZM61.59 21.3503C61.5653 21.4944 61.6807 21.6197 61.8263 21.6197H66.3193C66.6734 21.6197 66.9622 21.319 66.8637 20.9772C66.8408 20.8979 66.8144 20.8191 66.7843 20.7408C66.6806 20.4479 66.5251 20.1712 66.3178 19.9108C66.1105 19.6503 65.8286 19.442 65.4723 19.2858C65.1225 19.1295 64.7208 19.0514 64.2673 19.0514C63.8397 19.0514 63.4509 19.1295 63.1011 19.2858C62.7577 19.4355 62.4791 19.6406 62.2653 19.901C62.058 20.1549 61.8928 20.4283 61.7697 20.7213C61.687 20.9244 61.6271 21.1341 61.59 21.3503Z"/>
</mask>
<path d="M2.63191 27.9413H4.70588V29.7147C4.70588 30.4234 5.36121 31 6.1661 31H12.9711C13.7764 31 14.4313 30.4234 14.4313 29.7147V27.9413H16.783C17.6827 27.9413 18.4149 27.2636 18.4149 26.4301V5.53553C18.4149 4.70244 17.6831 4.02431 16.783 4.02431H14.4313V2.2853C14.4313 1.57656 13.776 1 12.9711 1H6.1661C5.36082 1 4.70588 1.57656 4.70588 2.2853V4.02431H2.63191C1.73224 4.02431 1 4.70206 1 5.53553V26.4301C1 27.2636 1.73224 27.9413 2.63191 27.9413ZM17.638 13.1712V14.5185H1.77691V13.1712H17.638ZM1.77691 12.4243V11.0767H17.638V12.4243H1.77691ZM17.638 15.2657V16.613H1.77691V15.2657H17.638ZM17.638 17.3598V18.7071H1.77691V17.3598H17.638ZM17.638 19.4543V20.8016H1.77691V19.4543H17.638ZM17.638 21.5484V22.8961H1.77691V21.5484H17.638ZM17.638 10.3298H1.77691V8.98255H17.638V10.3298ZM1.77691 23.6429H17.638V24.9902H1.77691V23.6429ZM17.638 8.23571H1.77691V6.88805H17.638V8.23571ZM13.6544 29.7147C13.6544 30.0116 13.3479 30.2532 12.9711 30.2532H6.1661C5.78929 30.2532 5.4828 30.0116 5.4828 29.7147V27.9413H13.6544V29.7147ZM16.7834 27.1945H2.63191C2.16032 27.1945 1.77691 26.8517 1.77691 26.4301V25.7374H17.638V26.4301C17.638 26.8517 17.2546 27.1945 16.7834 27.1945ZM5.4828 2.2853C5.4828 1.98844 5.78929 1.74684 6.1661 1.74684H12.9711C13.3479 1.74684 13.6544 1.98844 13.6544 2.2853V4.02431H5.4828V2.2853ZM2.63191 4.77115H16.783C17.2542 4.77115 17.638 5.11394 17.638 5.53553V6.14121H1.77691V5.53553C1.77691 5.11394 2.16032 4.77115 2.63191 4.77115Z" fill="#060F41"/>
<path d="M22.9942 15.9557C22.6507 15.9557 22.3723 15.6759 22.3723 15.3307V14.5201C22.3723 14.1749 22.6507 13.8951 22.9942 13.8951H32.1196C32.4631 13.8951 32.7416 14.1749 32.7416 14.5201V15.3307C32.7416 15.6759 32.4631 15.9557 32.1196 15.9557H29.3499C29.0064 15.9557 28.728 16.2355 28.728 16.5807V26.61C28.728 26.9551 28.4495 27.235 28.106 27.235H27.0176C26.6741 27.235 26.3956 26.9551 26.3956 26.61V16.5807C26.3956 16.2355 26.1171 15.9557 25.7736 15.9557H22.9942Z" fill="#060F41"/>
<path d="M31.6119 18.3871C31.4876 17.9848 31.7868 17.5768 32.2059 17.5768H33.0618C33.3384 17.5768 33.5818 17.7604 33.659 18.0273L34.9986 22.6582C35.1693 23.2483 35.9961 23.2626 36.1868 22.6787L37.7128 18.0069C37.7966 17.7502 38.035 17.5768 38.3038 17.5768H39.2299C39.4986 17.5768 39.737 17.7502 39.8208 18.0069L41.3468 22.6787C41.5375 23.2625 42.3643 23.2483 42.535 22.6582L43.8746 18.0273C43.9518 17.7604 44.1952 17.5768 44.4718 17.5768H45.3277C45.7468 17.5768 46.046 17.9848 45.9217 18.3871L43.3244 26.7953C43.2436 27.0568 43.0029 27.235 42.7304 27.235H41.4481C41.1767 27.235 40.9367 27.0582 40.855 26.7982L39.004 20.9096C38.9308 20.6767 38.6028 20.6767 38.5296 20.9096L36.6786 26.7982C36.5969 27.0582 36.3569 27.235 36.0856 27.235H34.8032C34.5307 27.235 34.29 27.0568 34.2092 26.7953L31.6119 18.3871Z" fill="#060F41"/>
<path d="M46.5025 16.0143C46.2498 15.7604 46.1235 15.4544 46.1235 15.0963C46.1235 14.7382 46.2498 14.4322 46.5025 14.1783C46.7616 13.9244 47.0661 13.7975 47.416 13.7975C47.7788 13.7975 48.0833 13.9244 48.3295 14.1783C48.5821 14.4322 48.7085 14.7382 48.7085 15.0963C48.7085 15.4544 48.5821 15.7604 48.3295 16.0143C48.0833 16.2682 47.7788 16.3951 47.416 16.3951C47.0661 16.3951 46.7616 16.2682 46.5025 16.0143ZM46.9981 27.235C46.6546 27.235 46.3761 26.9551 46.3761 26.61V18.2018C46.3761 17.8566 46.6546 17.5768 46.9981 17.5768H47.8436C48.1871 17.5768 48.4655 17.8566 48.4655 18.2018V26.61C48.4655 26.9551 48.1871 27.235 47.8436 27.235H46.9981Z" fill="#060F41"/>
<path d="M50.5549 27.235C50.2114 27.235 49.933 26.9551 49.933 26.61V18.2018C49.933 17.8566 50.2114 17.5768 50.5549 17.5768H51.4004C51.7439 17.5768 52.0224 17.8566 52.0224 18.2018V18.8951C52.3852 18.4654 52.8646 18.0976 53.4607 17.7916C54.0567 17.4856 54.7046 17.3326 55.4043 17.3326C56.4279 17.3326 57.2022 17.5996 57.7269 18.1334C58.2517 18.6673 58.5141 19.4355 58.5141 20.4381V26.61C58.5141 26.9551 58.2356 27.235 57.8921 27.235H57.0467C56.7032 27.235 56.4247 26.9551 56.4247 26.61V21.1998C56.4247 20.4837 56.2563 19.9726 55.9194 19.6666C55.5889 19.3541 55.1128 19.1979 54.4908 19.1979C53.9854 19.1979 53.5125 19.3248 53.0719 19.5787C52.6969 19.7893 52.3875 20.0424 52.1439 20.338C52.0612 20.4383 52.0224 20.5667 52.0224 20.697V26.61C52.0224 26.9551 51.7439 27.235 51.4004 27.235H50.5549Z" fill="#060F41"/>
<path d="M59.3887 22.3912C59.3887 21.4667 59.5928 20.6204 60.001 19.8522C60.4156 19.0774 60.9987 18.4654 61.7503 18.0162C62.5018 17.5605 63.3408 17.3326 64.2673 17.3326C65.6926 17.3326 66.8361 17.8274 67.6978 18.817C68.5659 19.8001 69 21.0598 69 22.5963C69 22.8714 68.7781 23.0943 68.5044 23.0943H61.8533C61.705 23.0943 61.5888 23.2242 61.6168 23.3705C61.7397 24.0108 62.0369 24.5535 62.5083 24.9986C63.0525 25.4999 63.7619 25.7506 64.6365 25.7506C65.1225 25.7506 65.6148 25.6594 66.1137 25.4772C66.3569 25.3863 66.5798 25.2789 66.7825 25.1548C67.1135 24.9523 67.5707 24.9899 67.7919 25.3097L68.0165 25.6345C68.1912 25.887 68.1597 26.2336 67.9151 26.4182C67.5301 26.7087 67.0916 26.9419 66.5996 27.1178C65.9258 27.3587 65.2002 27.4791 64.4227 27.4791C62.965 27.4791 61.76 27.0104 60.8076 26.0729C59.8617 25.1289 59.3887 23.9016 59.3887 22.3912ZM61.59 21.3503C61.5653 21.4944 61.6807 21.6197 61.8263 21.6197H66.3193C66.6734 21.6197 66.9622 21.319 66.8637 20.9772C66.8408 20.8979 66.8144 20.8191 66.7843 20.7408C66.6806 20.4479 66.5251 20.1712 66.3178 19.9108C66.1105 19.6503 65.8286 19.442 65.4723 19.2858C65.1225 19.1295 64.7208 19.0514 64.2673 19.0514C63.8397 19.0514 63.4509 19.1295 63.1011 19.2858C62.7577 19.4355 62.4791 19.6406 62.2653 19.901C62.058 20.1549 61.8928 20.4283 61.7697 20.7213C61.687 20.9244 61.6271 21.1341 61.59 21.3503Z" fill="#060F41"/>
<path d="M2.63191 27.9413H4.70588V29.7147C4.70588 30.4234 5.36121 31 6.1661 31H12.9711C13.7764 31 14.4313 30.4234 14.4313 29.7147V27.9413H16.783C17.6827 27.9413 18.4149 27.2636 18.4149 26.4301V5.53553C18.4149 4.70244 17.6831 4.02431 16.783 4.02431H14.4313V2.2853C14.4313 1.57656 13.776 1 12.9711 1H6.1661C5.36082 1 4.70588 1.57656 4.70588 2.2853V4.02431H2.63191C1.73224 4.02431 1 4.70206 1 5.53553V26.4301C1 27.2636 1.73224 27.9413 2.63191 27.9413ZM17.638 13.1712V14.5185H1.77691V13.1712H17.638ZM1.77691 12.4243V11.0767H17.638V12.4243H1.77691ZM17.638 15.2657V16.613H1.77691V15.2657H17.638ZM17.638 17.3598V18.7071H1.77691V17.3598H17.638ZM17.638 19.4543V20.8016H1.77691V19.4543H17.638ZM17.638 21.5484V22.8961H1.77691V21.5484H17.638ZM17.638 10.3298H1.77691V8.98255H17.638V10.3298ZM1.77691 23.6429H17.638V24.9902H1.77691V23.6429ZM17.638 8.23571H1.77691V6.88805H17.638V8.23571ZM13.6544 29.7147C13.6544 30.0116 13.3479 30.2532 12.9711 30.2532H6.1661C5.78929 30.2532 5.4828 30.0116 5.4828 29.7147V27.9413H13.6544V29.7147ZM16.7834 27.1945H2.63191C2.16032 27.1945 1.77691 26.8517 1.77691 26.4301V25.7374H17.638V26.4301C17.638 26.8517 17.2546 27.1945 16.7834 27.1945ZM5.4828 2.2853C5.4828 1.98844 5.78929 1.74684 6.1661 1.74684H12.9711C13.3479 1.74684 13.6544 1.98844 13.6544 2.2853V4.02431H5.4828V2.2853ZM2.63191 4.77115H16.783C17.2542 4.77115 17.638 5.11394 17.638 5.53553V6.14121H1.77691V5.53553C1.77691 5.11394 2.16032 4.77115 2.63191 4.77115Z" stroke="#F5FBFF" stroke-width="0.4" mask="url(#path-1-outside-1_3_199)"/>
<path d="M22.9942 15.9557C22.6507 15.9557 22.3723 15.6759 22.3723 15.3307V14.5201C22.3723 14.1749 22.6507 13.8951 22.9942 13.8951H32.1196C32.4631 13.8951 32.7416 14.1749 32.7416 14.5201V15.3307C32.7416 15.6759 32.4631 15.9557 32.1196 15.9557H29.3499C29.0064 15.9557 28.728 16.2355 28.728 16.5807V26.61C28.728 26.9551 28.4495 27.235 28.106 27.235H27.0176C26.6741 27.235 26.3956 26.9551 26.3956 26.61V16.5807C26.3956 16.2355 26.1171 15.9557 25.7736 15.9557H22.9942Z" stroke="#F5FBFF" stroke-width="0.4" mask="url(#path-1-outside-1_3_199)"/>
<path d="M31.6119 18.3871C31.4876 17.9848 31.7868 17.5768 32.2059 17.5768H33.0618C33.3384 17.5768 33.5818 17.7604 33.659 18.0273L34.9986 22.6582C35.1693 23.2483 35.9961 23.2626 36.1868 22.6787L37.7128 18.0069C37.7966 17.7502 38.035 17.5768 38.3038 17.5768H39.2299C39.4986 17.5768 39.737 17.7502 39.8208 18.0069L41.3468 22.6787C41.5375 23.2625 42.3643 23.2483 42.535 22.6582L43.8746 18.0273C43.9518 17.7604 44.1952 17.5768 44.4718 17.5768H45.3277C45.7468 17.5768 46.046 17.9848 45.9217 18.3871L43.3244 26.7953C43.2436 27.0568 43.0029 27.235 42.7304 27.235H41.4481C41.1767 27.235 40.9367 27.0582 40.855 26.7982L39.004 20.9096C38.9308 20.6767 38.6028 20.6767 38.5296 20.9096L36.6786 26.7982C36.5969 27.0582 36.3569 27.235 36.0856 27.235H34.8032C34.5307 27.235 34.29 27.0568 34.2092 26.7953L31.6119 18.3871Z" stroke="#F5FBFF" stroke-width="0.4" mask="url(#path-1-outside-1_3_199)"/>
<path d="M46.5025 16.0143C46.2498 15.7604 46.1235 15.4544 46.1235 15.0963C46.1235 14.7382 46.2498 14.4322 46.5025 14.1783C46.7616 13.9244 47.0661 13.7975 47.416 13.7975C47.7788 13.7975 48.0833 13.9244 48.3295 14.1783C48.5821 14.4322 48.7085 14.7382 48.7085 15.0963C48.7085 15.4544 48.5821 15.7604 48.3295 16.0143C48.0833 16.2682 47.7788 16.3951 47.416 16.3951C47.0661 16.3951 46.7616 16.2682 46.5025 16.0143ZM46.9981 27.235C46.6546 27.235 46.3761 26.9551 46.3761 26.61V18.2018C46.3761 17.8566 46.6546 17.5768 46.9981 17.5768H47.8436C48.1871 17.5768 48.4655 17.8566 48.4655 18.2018V26.61C48.4655 26.9551 48.1871 27.235 47.8436 27.235H46.9981Z" stroke="#F5FBFF" stroke-width="0.4" mask="url(#path-1-outside-1_3_199)"/>
<path d="M50.5549 27.235C50.2114 27.235 49.933 26.9551 49.933 26.61V18.2018C49.933 17.8566 50.2114 17.5768 50.5549 17.5768H51.4004C51.7439 17.5768 52.0224 17.8566 52.0224 18.2018V18.8951C52.3852 18.4654 52.8646 18.0976 53.4607 17.7916C54.0567 17.4856 54.7046 17.3326 55.4043 17.3326C56.4279 17.3326 57.2022 17.5996 57.7269 18.1334C58.2517 18.6673 58.5141 19.4355 58.5141 20.4381V26.61C58.5141 26.9551 58.2356 27.235 57.8921 27.235H57.0467C56.7032 27.235 56.4247 26.9551 56.4247 26.61V21.1998C56.4247 20.4837 56.2563 19.9726 55.9194 19.6666C55.5889 19.3541 55.1128 19.1979 54.4908 19.1979C53.9854 19.1979 53.5125 19.3248 53.0719 19.5787C52.6969 19.7893 52.3875 20.0424 52.1439 20.338C52.0612 20.4383 52.0224 20.5667 52.0224 20.697V26.61C52.0224 26.9551 51.7439 27.235 51.4004 27.235H50.5549Z" stroke="#F5FBFF" stroke-width="0.4" mask="url(#path-1-outside-1_3_199)"/>
<path d="M59.3887 22.3912C59.3887 21.4667 59.5928 20.6204 60.001 19.8522C60.4156 19.0774 60.9987 18.4654 61.7503 18.0162C62.5018 17.5605 63.3408 17.3326 64.2673 17.3326C65.6926 17.3326 66.8361 17.8274 67.6978 18.817C68.5659 19.8001 69 21.0598 69 22.5963C69 22.8714 68.7781 23.0943 68.5044 23.0943H61.8533C61.705 23.0943 61.5888 23.2242 61.6168 23.3705C61.7397 24.0108 62.0369 24.5535 62.5083 24.9986C63.0525 25.4999 63.7619 25.7506 64.6365 25.7506C65.1225 25.7506 65.6148 25.6594 66.1137 25.4772C66.3569 25.3863 66.5798 25.2789 66.7825 25.1548C67.1135 24.9523 67.5707 24.9899 67.7919 25.3097L68.0165 25.6345C68.1912 25.887 68.1597 26.2336 67.9151 26.4182C67.5301 26.7087 67.0916 26.9419 66.5996 27.1178C65.9258 27.3587 65.2002 27.4791 64.4227 27.4791C62.965 27.4791 61.76 27.0104 60.8076 26.0729C59.8617 25.1289 59.3887 23.9016 59.3887 22.3912ZM61.59 21.3503C61.5653 21.4944 61.6807 21.6197 61.8263 21.6197H66.3193C66.6734 21.6197 66.9622 21.319 66.8637 20.9772C66.8408 20.8979 66.8144 20.8191 66.7843 20.7408C66.6806 20.4479 66.5251 20.1712 66.3178 19.9108C66.1105 19.6503 65.8286 19.442 65.4723 19.2858C65.1225 19.1295 64.7208 19.0514 64.2673 19.0514C63.8397 19.0514 63.4509 19.1295 63.1011 19.2858C62.7577 19.4355 62.4791 19.6406 62.2653 19.901C62.058 20.1549 61.8928 20.4283 61.7697 20.7213C61.687 20.9244 61.6271 21.1341 61.59 21.3503Z" stroke="#F5FBFF" stroke-width="0.4" mask="url(#path-1-outside-1_3_199)"/>
</svg>
