<svg width="75" height="53" viewBox="0 0 75 53" fill="none" xmlns="http://www.w3.org/2000/svg">
<g clip-path="url(#clip0_95_46)">
<path d="M6.64914 35.3795L6.41167 36.989C6.39408 36.989 6.34571 37.0022 6.26655 37.0286C6.1874 37.055 6.09945 37.0946 6.0027 37.1473C5.90595 37.2001 5.818 37.2573 5.73885 37.3188C5.65969 37.3804 5.62011 37.4376 5.62011 37.4903V37.5167C5.62011 37.5519 5.6377 37.5871 5.67288 37.6223L5.54096 37.7542C5.4706 37.719 5.43542 37.6926 5.43542 37.675C5.43542 37.6575 5.43982 37.6487 5.44861 37.6487C5.45741 37.6487 5.4618 37.6399 5.4618 37.6223H5.43542C5.41783 37.6223 5.39584 37.6311 5.36945 37.6487C5.34307 37.6662 5.31229 37.6838 5.27711 37.7014C5.17156 37.6662 5.09681 37.6267 5.05283 37.5827C5.00886 37.5387 4.96928 37.4947 4.9341 37.4508C4.89892 37.4068 4.85494 37.3672 4.80217 37.332C4.7494 37.2969 4.67024 37.2793 4.5647 37.2793C4.59988 37.332 4.64386 37.3804 4.69663 37.4244C4.7494 37.4684 4.77579 37.5607 4.77579 37.7014V37.7542C4.72301 37.7542 4.66585 37.7278 4.60428 37.675C4.54272 37.6223 4.48555 37.5607 4.43278 37.4903C4.36242 37.4903 4.30525 37.5211 4.26127 37.5827C4.2173 37.6443 4.17772 37.7014 4.14254 37.7542C4.08977 37.6662 3.98423 37.5607 3.82592 37.4376C3.6676 37.3144 3.54447 37.2089 3.45652 37.121L3.50929 36.989H3.45652C3.45652 36.9363 3.43893 36.9055 3.40375 36.8967C3.36857 36.8879 3.32459 36.8703 3.27182 36.8439C3.21905 36.8175 3.17508 36.778 3.1399 36.7252C3.10472 36.6724 3.08713 36.5933 3.08713 36.4877C3.08713 36.347 3.1399 36.1183 3.24544 35.8017C3.21026 35.6962 3.19267 35.6434 3.19267 35.6434C3.19267 35.573 3.21905 35.5291 3.27182 35.5115C3.32459 35.4939 3.38616 35.4719 3.45652 35.4455C3.52688 35.4191 3.58845 35.3795 3.64122 35.3268C3.69399 35.274 3.72037 35.1773 3.72037 35.0365C3.72037 34.3329 3.74236 33.8404 3.78634 33.559C3.83031 33.2775 3.87869 33.0753 3.93146 32.9521C3.98423 32.829 4.0326 32.7279 4.07658 32.6487C4.12055 32.5695 4.14254 32.3805 4.14254 32.0814C4.07218 32.1518 4.01941 32.187 3.98423 32.187C3.96664 32.187 3.94025 32.1694 3.90507 32.1342L3.95784 30.5247C3.99302 30.4016 4.0282 30.2301 4.06338 30.0102C4.09856 29.7903 4.11615 29.6716 4.11615 29.654L4.43278 28.9416V28.7041L4.45916 28.5986C4.47675 28.3699 4.50753 28.194 4.55151 28.0709C4.59549 27.9478 4.63506 27.8466 4.67024 27.7675C4.70542 27.6883 4.7406 27.6004 4.77579 27.5036C4.81097 27.4069 4.84615 27.2706 4.88133 27.0947V26.8308L3.8523 26.9627L3.19267 27.121H3.00797C2.99038 27.121 2.964 27.1342 2.92882 27.1606C2.89364 27.187 2.85845 27.2002 2.82327 27.2002V27.1738C2.71773 27.1738 2.66496 27.1562 2.66496 27.121C2.66496 27.0859 2.62978 27.0683 2.55942 27.0683C2.54183 27.0683 2.52424 27.0727 2.50665 27.0815C2.48906 27.0903 2.46268 27.0947 2.4275 27.0947H2.2428C2.22521 27.0947 2.19443 27.1079 2.15045 27.1342C2.10647 27.1606 2.0669 27.1738 2.03172 27.1738H2.00533C1.7063 27.1738 1.5172 27.1474 1.43805 27.0947C1.35889 27.0419 1.32811 27.0243 1.3457 27.0419V26.91C1.13462 26.91 0.993895 26.7912 0.923534 26.5538C0.853174 26.3163 0.817993 26.1184 0.817993 25.9601L1.00269 25.8018C1.03787 25.7842 1.05546 25.7754 1.05546 25.7754C1.14341 25.7754 1.21377 25.7798 1.26654 25.7886C1.31931 25.7974 1.38088 25.8018 1.45124 25.8018C1.62714 25.8018 1.75027 25.793 1.82063 25.7754C1.89099 25.7578 1.96136 25.7051 2.03172 25.6171H2.2428C2.50665 25.6171 2.71773 25.5863 2.87604 25.5248C3.03436 25.4632 3.23664 25.4324 3.48291 25.4324C3.55327 25.4324 3.66321 25.4456 3.81272 25.472C3.96224 25.4984 4.07218 25.5116 4.14254 25.5116H4.16892L4.22169 25.4852C4.23928 25.5028 4.26567 25.5116 4.30085 25.5116C4.37121 25.5116 4.44157 25.4896 4.51193 25.4456C4.58229 25.4016 4.62627 25.3796 4.64386 25.3796C4.66145 25.3972 4.67024 25.406 4.67024 25.406C4.7406 25.406 4.85934 25.3489 5.02645 25.2345C5.19355 25.1202 5.33867 25.063 5.4618 25.063C5.51457 25.063 5.57174 25.0674 5.63331 25.0762C5.69487 25.085 5.76963 25.0894 5.85758 25.0894C5.9983 25.0894 6.14782 25.063 6.30613 25.0102H6.43806C6.64914 25.0102 6.85582 24.9971 7.05811 24.9707C7.2604 24.9443 7.46708 24.9311 7.67817 24.9311H7.81009C7.84527 24.9311 7.90244 24.9223 7.9816 24.9047C8.06075 24.8871 8.17069 24.8783 8.31141 24.8783C8.36418 24.8783 8.41695 24.8783 8.46973 24.8783C8.5225 24.8783 8.59286 24.8871 8.68081 24.9047H9.34044C9.55152 24.9047 9.74941 24.9179 9.93411 24.9443C10.1188 24.9707 10.3343 25.0454 10.5805 25.1686C10.5454 25.2037 10.5278 25.2477 10.5278 25.3005C10.5278 25.3357 10.541 25.428 10.5674 25.5775C10.5937 25.727 10.6069 25.8194 10.6069 25.8546C10.6245 25.8546 10.6289 25.8502 10.6201 25.8414C10.6113 25.8326 10.6157 25.8282 10.6333 25.8282C10.6509 25.8282 10.6685 25.837 10.6861 25.8546C10.3871 26.0656 10.0704 26.202 9.73622 26.2635C9.40201 26.3251 9.12056 26.3823 8.89189 26.435C8.85671 26.435 8.71599 26.4614 8.46973 26.5142C8.22346 26.567 7.75732 26.6637 7.07131 26.8044L7.49347 27.0419C7.40552 27.1298 7.33516 27.2486 7.28239 27.3981C7.22962 27.5476 7.20323 27.6839 7.20323 27.8071L7.4407 27.7279L7.15046 28.3611V29.4165C7.02733 29.4693 6.96576 29.5836 6.96576 29.7595L7.09769 29.6804H7.15046C7.18564 29.6804 7.20323 29.7244 7.20323 29.8123V29.8915C7.20323 29.9266 7.19444 29.9794 7.17685 30.0498C7.15926 30.1201 7.15046 30.1817 7.15046 30.2345L6.91299 30.4192V30.8413C6.98335 30.8413 7.01853 30.8061 7.01853 30.7358C7.01853 30.683 7.00974 30.6522 6.99215 30.6434C6.97456 30.6346 6.96576 30.6127 6.96576 30.5775C6.96576 30.4719 7.00974 30.4192 7.09769 30.4192C7.16805 30.4192 7.20323 30.4368 7.20323 30.4719V30.683V30.8413C7.20323 30.9469 7.18564 31.0172 7.15046 31.0524L7.04492 31.0788L7.01853 31.2635L6.91299 31.2107C6.87781 31.2107 6.85583 31.2591 6.84703 31.3558C6.83823 31.4526 6.82504 31.5625 6.80745 31.6856C6.78986 31.8088 6.78107 31.9275 6.78107 32.0418C6.78107 32.1562 6.78107 32.2221 6.78107 32.2397C6.78107 32.3101 6.78986 32.3717 6.80745 32.4244L6.86022 32.3717C6.86022 32.3365 6.86902 32.2925 6.88661 32.2397C6.9042 32.187 6.91299 32.1518 6.91299 32.1342L6.86022 32.0814V31.9759C6.86022 31.9407 6.86462 31.9011 6.87342 31.8572C6.88221 31.8132 6.93058 31.7912 7.01853 31.7912C7.07131 31.7912 7.09769 31.8528 7.09769 31.9759C7.09769 32.0462 7.0845 32.099 7.05811 32.1342C7.03173 32.1694 7.01853 32.2309 7.01853 32.3189C7.01853 32.3541 7.02293 32.3849 7.03173 32.4112C7.04052 32.4376 7.04492 32.4684 7.04492 32.5036C7.04492 32.5388 7.03173 32.5783 7.00534 32.6223C6.97896 32.6663 6.96576 32.7059 6.96576 32.741C6.96576 32.7762 6.97456 32.8422 6.99215 32.9389C7.00974 33.0357 7.01853 33.1104 7.01853 33.1632C7.01853 33.216 7.00094 33.2731 6.96576 33.3347C6.93058 33.3963 6.8954 33.4622 6.86022 33.5326L6.70191 33.7701V34.7991C6.64914 34.887 6.62276 34.975 6.62276 35.0629C6.62276 35.1157 6.62715 35.1729 6.63595 35.2344C6.64474 35.296 6.64914 35.3444 6.64914 35.3795ZM6.51721 30.6039L6.46444 30.7886L6.64914 30.8149C6.64914 30.6215 6.65794 30.406 6.67553 30.1685C6.69312 29.931 6.70191 29.7156 6.70191 29.5221L6.64914 29.2582C6.61396 29.2758 6.58757 29.3374 6.56998 29.4429C6.55239 29.5485 6.5348 29.6672 6.51721 29.7991C6.49962 29.931 6.48643 30.0586 6.47764 30.1817C6.46884 30.3048 6.46444 30.384 6.46444 30.4192L6.51721 30.6039ZM6.43806 31.5537V32.7674C6.5436 32.2749 6.59637 31.7912 6.59637 31.3163V31.0524L6.43806 31.5537ZM4.11615 33.1368H4.14254C4.12495 33.1544 4.11615 33.172 4.11615 33.1896C4.11615 33.2248 4.13374 33.2512 4.16892 33.2687C4.2041 33.2863 4.23928 33.3127 4.27446 33.3479V33.2687C4.27446 33.2336 4.27007 33.1896 4.26127 33.1368C4.25248 33.0841 4.22169 33.0577 4.16892 33.0577C4.08097 33.0577 4.00182 33.1104 3.93146 33.216C4.00182 33.1632 4.06338 33.1368 4.11615 33.1368ZM4.14254 32.8466C4.10736 32.8466 4.08977 32.873 4.08977 32.9257C4.08977 32.9785 4.10736 33.0049 4.14254 33.0049C4.17772 33.0049 4.19531 32.9873 4.19531 32.9521C4.19531 32.9169 4.17772 32.8818 4.14254 32.8466ZM15.066 34.9838C15.3827 35.0717 15.541 35.1333 15.541 35.1685L15.5146 35.4059C15.5146 35.5994 15.5498 35.7665 15.6201 35.9072C15.6553 35.9776 15.6905 36.0216 15.7257 36.0392C15.7257 36.0744 15.6509 36.0963 15.5014 36.1051C15.3519 36.1139 15.176 36.1271 14.9737 36.1447C14.7714 36.1623 14.5691 36.1755 14.3668 36.1843C14.1645 36.1931 14.0018 36.1975 13.8787 36.1975H13.694C13.307 36.1975 12.9816 36.1359 12.7178 36.0128C12.4539 35.8897 12.2428 35.6786 12.0845 35.3795L11.979 35.3268L11.9262 34.9838C11.891 34.8431 11.8558 34.7111 11.8207 34.588C11.7855 34.4649 11.7679 34.3329 11.7679 34.1922C11.7855 34.0867 11.8295 33.9943 11.8998 33.9152C11.9702 33.836 12.0361 33.7657 12.0977 33.7041C12.1593 33.6425 12.2076 33.5942 12.2428 33.559C12.278 33.5238 12.2692 33.5062 12.2164 33.5062C12.2164 33.4183 12.2692 33.3039 12.3747 33.1632C12.4803 33.0225 12.6122 32.8818 12.7705 32.741C12.9288 32.6003 13.0915 32.464 13.2587 32.3321C13.4258 32.2002 13.5621 32.099 13.6676 32.0287L13.8787 32.0814C13.9139 32.0814 14.0062 32.0594 14.1558 32.0155C14.3053 31.9715 14.424 31.9319 14.512 31.8967L14.8813 31.6329C15.0045 31.6153 15.066 31.5537 15.066 31.4482L16.0951 30.9733C16.1127 30.9381 16.1434 30.8985 16.1874 30.8545C16.2314 30.8105 16.2534 30.7798 16.2534 30.7622L16.0423 29.9179C16.0423 29.8827 16.0159 29.8651 15.9631 29.8651C15.9456 29.8651 15.9368 29.8695 15.9368 29.8783C15.9368 29.8871 15.928 29.8915 15.9104 29.8915H15.8576C15.7697 29.8915 15.6157 29.9091 15.3959 29.9442C15.176 29.9794 14.9517 30.0234 14.723 30.0762C14.4944 30.1289 14.2877 30.1729 14.103 30.2081C13.9183 30.2433 13.8259 30.2609 13.8259 30.2609C13.8083 30.2785 13.782 30.2872 13.7468 30.2872C13.6412 30.2872 13.5313 30.2345 13.417 30.1289C13.3026 30.0234 13.2015 29.9266 13.1135 29.8387L12.8497 29.7332L12.7178 29.6276C12.7178 29.5924 12.709 29.5617 12.6914 29.5353C12.6738 29.5089 12.6562 29.4781 12.6386 29.4429L12.5858 29.3374C12.5858 29.2494 12.7309 29.1703 13.0212 29.0999C13.3114 29.0296 13.6764 28.968 14.1162 28.9152C14.5559 28.8625 15.0265 28.8229 15.5278 28.7965C16.0291 28.7701 16.4908 28.7569 16.913 28.7569H16.9922C17.2384 28.7569 17.4407 28.7965 17.599 28.8756C17.7573 28.9548 17.8893 29.0515 17.9948 29.1659C18.1004 29.2802 18.1883 29.4033 18.2587 29.5353C18.329 29.6672 18.4082 29.7859 18.4961 29.8915V30.34C18.4961 30.5335 18.5005 30.6874 18.5093 30.8018C18.5181 30.9161 18.5225 31.026 18.5225 31.1316C18.5225 31.2371 18.5137 31.347 18.4961 31.4614C18.4785 31.5757 18.4434 31.7296 18.3906 31.9231C18.3906 32.0111 18.4082 32.0858 18.4434 32.1474C18.4785 32.209 18.4961 32.2749 18.4961 32.3453V32.3717L18.5225 32.5564L18.3114 32.7938L18.4697 32.9785L18.285 33.216C18.285 33.2512 18.2719 33.2951 18.2455 33.3479C18.2191 33.4007 18.2059 33.4446 18.2059 33.4798L18.2323 33.5062L18.1795 33.9284L18.3906 33.9811L18.3642 34.1395L18.2059 34.2186L18.2587 34.3241L18.2323 34.5088C18.1443 34.6672 18.0828 34.8958 18.0476 35.1949C18.0124 35.4939 17.986 35.7138 17.9684 35.8545C17.9508 35.8897 17.8849 35.9116 17.7705 35.9204C17.6562 35.9292 17.5331 35.938 17.4011 35.9468C17.2692 35.9556 17.1461 35.96 17.0317 35.96C16.9174 35.96 16.8602 35.96 16.8602 35.96C16.7019 35.96 16.5656 35.916 16.4513 35.8281C16.3369 35.7401 16.249 35.6302 16.1874 35.4983C16.1259 35.3664 16.0819 35.2256 16.0555 35.0761C16.0291 34.9266 16.0159 34.7903 16.0159 34.6672C16.0159 34.3681 16.0643 34.1263 16.161 33.9416C16.2578 33.7569 16.3062 33.4974 16.3062 33.1632C16.271 33.0225 16.2666 32.8774 16.293 32.7279C16.3193 32.5783 16.2534 32.5036 16.0951 32.5036C16.0599 32.5388 16.0203 32.5783 15.9763 32.6223C15.9324 32.6663 15.8928 32.6971 15.8576 32.7147C15.84 32.6971 15.796 32.6883 15.7257 32.6883C15.6905 32.6883 15.6113 32.7147 15.4882 32.7674C15.3651 32.8202 15.2332 32.8818 15.0924 32.9521C14.9517 33.0225 14.8242 33.0928 14.7098 33.1632C14.5955 33.2336 14.5295 33.2863 14.512 33.3215C14.3185 33.4446 14.1294 33.5502 13.9447 33.6381C13.76 33.7261 13.6061 33.8316 13.4829 33.9548L13.4302 34.3505C13.4302 34.3681 13.4214 34.4077 13.4038 34.4693C13.3862 34.5308 13.3774 34.588 13.3774 34.6408L13.4038 34.6672L13.5093 34.588L13.5885 34.7199C13.7116 34.7375 13.8347 34.7419 13.9579 34.7331C14.081 34.7243 14.1689 34.7375 14.2217 34.7727C14.2393 34.7727 14.2525 34.7683 14.2613 34.7595C14.2701 34.7507 14.2833 34.7463 14.3009 34.7463C14.3888 34.7463 14.4988 34.7903 14.6307 34.8782C14.7626 34.9662 14.8813 35.0102 14.9869 35.0102C15.0221 35.0102 15.0485 35.0014 15.066 34.9838ZM20.5806 35.9336L20.4486 35.8281C20.3079 35.7577 20.22 35.6698 20.1848 35.5642C20.1496 35.4587 20.132 35.3268 20.132 35.1685V34.7727L20.5806 30.1817C20.5806 30.1641 20.5762 30.1509 20.5674 30.1421C20.5586 30.1333 20.5542 30.1113 20.5542 30.0762C20.5542 30.0938 20.563 30.0322 20.5806 29.8915C20.5982 29.7507 20.6245 29.5924 20.6597 29.4165C20.6949 29.2406 20.7301 29.0779 20.7653 28.9284C20.8004 28.7789 20.8356 28.7041 20.8708 28.7041C20.906 28.7041 20.972 28.7217 21.0687 28.7569C21.1654 28.7921 21.2226 28.8097 21.2402 28.8097C21.4337 28.8625 21.658 28.9108 21.913 28.9548C22.1681 28.9988 22.4143 29.0603 22.6518 29.1395C22.8893 29.2187 23.0916 29.3374 23.2587 29.4957C23.4258 29.654 23.5093 29.8739 23.5093 30.1553L23.2191 30.7358C23.1311 30.9117 23.0564 31.092 22.9948 31.2767C22.9333 31.4614 22.8937 31.6417 22.8761 31.8176C22.8761 31.8352 22.8761 31.8923 22.8761 31.9891C22.8761 32.0858 22.8717 32.2002 22.8629 32.3321C22.8541 32.464 22.8497 32.6003 22.8497 32.741C22.8497 32.8818 22.8497 33.0049 22.8497 33.1104V33.5326L22.9025 33.5854C22.9025 33.603 22.8893 33.6337 22.8629 33.6777C22.8365 33.7217 22.8233 33.7701 22.8233 33.8228L22.8497 33.902C22.8497 33.9196 22.8321 33.9372 22.7969 33.9548C22.7618 33.9723 22.7354 33.9811 22.7178 33.9811L22.7705 34.1658C22.753 34.1658 22.7442 34.1746 22.7442 34.1922L22.6914 34.2714C22.6914 34.2538 22.687 34.2406 22.6782 34.2318C22.6694 34.223 22.665 34.2098 22.665 34.1922L22.5858 34.1658L22.5067 34.2186C22.4891 34.2538 22.4715 34.3593 22.4539 34.5352C22.4363 34.7111 22.4099 34.8167 22.3748 34.8518H22.4275C22.4803 34.8518 22.5551 34.7771 22.6518 34.6276C22.7486 34.4781 22.8057 34.4033 22.8233 34.4033C22.7881 34.5968 22.7661 34.8211 22.7574 35.0761C22.7486 35.3312 22.7442 35.5554 22.7442 35.7489L22.8233 35.96L22.5331 35.8809L22.4275 35.96C22.3924 35.96 22.322 35.9776 22.2165 36.0128L22.1109 36.0656L21.7151 35.8809H21.5832L21.1874 36.0656L20.9763 36.0392V35.9336H20.5806ZM20.5542 26.5933C20.5542 26.224 20.6114 25.8985 20.7257 25.6171C20.84 25.3357 20.9763 25.0366 21.1347 24.72L21.2666 24.7992C21.2842 24.7992 21.315 24.8124 21.3589 24.8387C21.4029 24.8651 21.4513 24.8783 21.5041 24.8783H22.1901C22.278 24.8783 22.3748 24.9399 22.4803 25.063C22.5858 25.1861 22.6562 25.2477 22.6914 25.2477C22.709 25.2477 22.731 25.2433 22.7574 25.2345C22.7837 25.2257 22.8145 25.2213 22.8497 25.2213C22.9728 25.2213 23.0916 25.2609 23.2059 25.3401C23.3202 25.4192 23.417 25.5204 23.4961 25.6435C23.5753 25.7666 23.6369 25.8897 23.6808 26.0129C23.7248 26.136 23.7468 26.2503 23.7468 26.3559C23.7468 26.479 23.6632 26.6109 23.4961 26.7517C23.329 26.8924 23.1355 27.0199 22.9157 27.1342C22.6958 27.2486 22.4671 27.3453 22.2296 27.4245C21.9922 27.5036 21.8031 27.5432 21.6624 27.5432C21.3809 27.5432 21.1303 27.4465 20.9104 27.253C20.6905 27.0595 20.5718 26.8396 20.5542 26.5933ZM22.1109 34.3505C22.1109 34.3857 22.1153 34.4473 22.1241 34.5352C22.1329 34.6232 22.1549 34.6847 22.1901 34.7199L22.2428 34.4033L22.3748 34.3505V34.2186C22.322 34.2186 22.2648 34.2362 22.2033 34.2714C22.1417 34.3066 22.1109 34.3329 22.1109 34.3505ZM22.0845 35.6962L22.1373 35.8809L22.3484 35.8545V35.7226L22.0845 35.6962ZM22.5067 36.0656C22.5595 36.1007 22.5858 36.1447 22.5858 36.1975C22.5858 36.2678 22.5595 36.303 22.5067 36.303C22.4539 36.303 22.4275 36.2678 22.4275 36.1975C22.4275 36.1095 22.4539 36.0656 22.5067 36.0656ZM22.7969 33.5326L22.6122 33.6909V33.7701C22.6122 33.8052 22.6298 33.8228 22.665 33.8228L22.7969 33.6909V33.5326ZM28.8392 26.2503L28.8655 26.3031C28.8304 26.4438 28.782 26.5494 28.7204 26.6197C28.6589 26.6901 28.6105 26.8308 28.5753 27.0419L28.6017 27.1474C28.6017 27.2178 28.5665 27.2925 28.4962 27.3717C28.4258 27.4509 28.3906 27.508 28.3906 27.5432L28.3115 28.5986C28.3115 28.6514 28.3071 28.7041 28.2983 28.7569C28.2895 28.8097 28.2851 28.8625 28.2851 28.9152V29.1263C28.2851 29.2143 28.2499 29.3198 28.1795 29.4429L28.2323 29.7068V29.6804L28.2587 29.7332C28.2059 29.8211 28.1751 29.8739 28.1663 29.8915C28.1575 29.9091 28.1443 29.953 28.1268 30.0234L28.2059 30.0762C28.2059 30.1817 28.1971 30.2433 28.1795 30.2609L28.0476 30.6566C28.0476 30.6918 28.0212 30.7358 27.9684 30.7886L27.8365 30.7358L27.1769 31.501H27.2297C27.2648 31.501 27.3264 31.479 27.4144 31.435C27.5023 31.391 27.5903 31.3514 27.6782 31.3163C27.7837 31.2635 27.8981 31.2019 28.0212 31.1316C28.0212 31.2723 27.9992 31.391 27.9553 31.4878C27.9113 31.5845 27.8805 31.6944 27.8629 31.8176L27.8101 32.2661L27.8629 32.4772L27.6518 32.5036L27.3088 32.6355L27.3352 32.741L27.5727 33.0049L27.7837 32.6883L27.8893 32.7938L27.9421 33.1104L28.074 33.216V33.7964L27.9684 33.9284H27.6518L27.5991 34.4297H27.8893C27.9245 34.4473 27.9553 34.4781 27.9816 34.522C28.008 34.566 28.0388 34.5968 28.074 34.6144L29.789 35.8809L29.9737 36.0128V36.3558L29.2349 36.6988C29.1294 36.6988 29.0678 36.6944 29.0502 36.6856C29.0327 36.6768 29.0107 36.668 28.9843 36.6592C28.9579 36.6504 28.9007 36.6284 28.8128 36.5933C28.7248 36.5581 28.5489 36.5141 28.2851 36.4613C28.2147 36.4262 28.1795 36.4086 28.1795 36.4086C28.1619 36.4086 28.1531 36.413 28.1531 36.4218C28.1531 36.4306 28.1443 36.4349 28.1268 36.4349C28.0916 36.4349 28.0564 36.4262 28.0212 36.4086L27.8101 36.303C27.8101 36.3206 27.775 36.3294 27.7046 36.3294C27.5287 36.3294 27.4012 36.3162 27.322 36.2898C27.2429 36.2634 27.1681 36.2063 27.0977 36.1183L26.0423 35.5906C26.0423 35.5906 26.0115 35.5598 25.95 35.4983C25.8884 35.4367 25.8268 35.3664 25.7653 35.2872C25.7037 35.208 25.6421 35.1377 25.5806 35.0761C25.519 35.0146 25.4882 34.975 25.4882 34.9574L25.3299 34.0603C25.3299 34.0075 25.3475 33.9416 25.3827 33.8624C25.4179 33.7833 25.4355 33.7085 25.4355 33.6381C25.4355 33.5502 25.4223 33.4886 25.3959 33.4534C25.3695 33.4183 25.3563 33.3567 25.3563 33.2687V33.1896V33.1632C25.3563 33.128 25.3651 33.0928 25.3827 33.0577C25.4003 33.0225 25.4091 32.9785 25.4091 32.9257C25.3915 32.9082 25.3827 32.8906 25.3827 32.873L25.3563 32.741L25.4882 32.4508C25.4882 32.4332 25.4926 32.42 25.5014 32.4112C25.5102 32.4024 25.5146 32.3892 25.5146 32.3717V32.3189C25.5146 32.2661 25.4882 32.2353 25.4355 32.2265C25.3827 32.2177 25.3563 32.187 25.3563 32.1342L25.541 31.6593V31.4218C25.541 31.3338 25.5366 31.2459 25.5278 31.1579C25.519 31.07 25.5146 30.9645 25.5146 30.8413C25.5674 30.4895 25.6202 30.2125 25.6729 30.0102C25.7257 29.8079 25.7961 29.5309 25.884 29.1791C25.9192 29.1791 25.9368 29.1527 25.9368 29.0999C25.9368 29.0472 25.9192 29.0076 25.884 28.9812C25.8488 28.9548 25.8312 28.8625 25.8312 28.7041C25.8312 28.5634 25.8796 28.326 25.9764 27.9918C26.0731 27.6575 26.1215 27.3409 26.1215 27.0419H26.0159C26.0511 26.8484 26.0819 26.6505 26.1083 26.4482C26.1347 26.2459 26.183 26.0305 26.2534 25.8018L26.3589 25.4588C26.4293 25.3005 26.4645 25.1949 26.4645 25.1422L26.57 24.5881L26.702 24.4562C26.7899 24.4738 26.9526 24.4913 27.1901 24.5089C27.4275 24.5265 27.5903 24.5529 27.6782 24.5881C27.7486 24.5177 27.8365 24.4825 27.9421 24.4825H28.2587L29.0502 24.7992L28.9447 25.2213C28.9447 25.3093 28.9799 25.4192 29.0502 25.5511C29.1206 25.6831 29.1558 25.7754 29.1558 25.8282L28.8392 26.2503ZM28.3115 34.0339L28.3642 33.8228H28.8392L28.5225 33.9284L28.417 34.245L28.3115 34.0339ZM26.2534 26.6989C26.2182 26.6989 26.2006 26.7605 26.2006 26.8836C26.2006 26.9715 26.227 27.0155 26.2798 27.0155C26.3326 27.0155 26.3589 26.9627 26.3589 26.8572C26.3589 26.7517 26.3238 26.6989 26.2534 26.6989ZM28.0476 29.997L27.8893 30.1817V30.2345C27.8893 30.2872 27.9069 30.3136 27.9421 30.3136C27.9772 30.3136 28.0212 30.2609 28.074 30.1553C28.0564 30.1377 28.0476 30.1113 28.0476 30.0762V29.997ZM26.3589 26.2503C26.2886 26.2679 26.2534 26.3031 26.2534 26.3559C26.2534 26.4087 26.2886 26.435 26.3589 26.435C26.4293 26.435 26.4645 26.4087 26.4645 26.3559C26.4645 26.2855 26.4293 26.2503 26.3589 26.2503ZM28.0212 34.1922H28.1268V34.2978H27.9948L28.0212 34.1922ZM31.293 33.1896L31.3721 33.0049C31.3721 32.9697 31.3809 32.9389 31.3985 32.9126C31.4161 32.8862 31.4337 32.8554 31.4513 32.8202L31.5305 32.741C31.5305 32.4948 31.614 32.187 31.7811 31.8176C31.9482 31.4482 32.1373 31.1931 32.3484 31.0524L32.5595 30.9469C32.5947 30.9293 32.6123 30.8897 32.6123 30.8281C32.6123 30.7666 32.621 30.7182 32.6386 30.683L32.7442 30.5511C32.8849 30.3576 33.0432 30.1597 33.2191 29.9574C33.395 29.7551 33.5665 29.5748 33.7336 29.4165C33.9007 29.2582 34.0546 29.1307 34.1954 29.034C34.3361 28.9372 34.4592 28.8888 34.5648 28.8888C34.5999 28.8888 34.6307 28.8976 34.6571 28.9152C34.6835 28.9328 34.7583 28.9592 34.8814 28.9944L35.1716 29.3638C35.242 29.3814 35.3036 29.4517 35.3563 29.5749L35.4355 29.7595V30.1817L35.5146 30.2872C35.5498 30.3224 35.5762 30.3532 35.5938 30.3796C35.6114 30.406 35.6378 30.428 35.673 30.4456L35.9896 30.6566C36.0072 30.727 36.0599 30.8149 36.1479 30.9205C36.2358 31.026 36.3238 31.1316 36.4117 31.2371L36.7811 31.6593C36.8163 31.712 36.8515 31.8088 36.8867 31.9495C36.9219 32.0902 36.9526 32.2397 36.979 32.398C37.0054 32.5564 37.0274 32.7015 37.045 32.8334C37.0626 32.9653 37.0714 33.0577 37.0714 33.1104V33.3215L36.8339 33.8756L36.8075 34.0867L36.5437 34.3769L36.1479 34.6935C36.0599 34.7463 35.9456 34.7727 35.8049 34.7727C35.6642 34.7727 35.541 34.8167 35.4355 34.9046L35.2244 34.9838C35.1189 35.0541 35.0309 35.0893 34.9605 35.0893C34.943 35.0893 34.9298 35.0849 34.921 35.0761C34.9122 35.0673 34.899 35.0629 34.8814 35.0629L34.5648 35.1157C34.4944 35.1685 34.3449 35.1949 34.1162 35.1949C33.9931 35.1949 33.8963 35.1861 33.826 35.1685L33.2191 35.0102L32.6123 34.7991C32.366 34.7287 32.1769 34.6672 32.045 34.6144C31.913 34.5616 31.7679 34.3857 31.6096 34.0867C31.5744 33.9987 31.5393 33.9108 31.5041 33.8228C31.4689 33.7349 31.4337 33.6645 31.3985 33.6118L31.293 33.1896ZM33.5094 33.2687L33.5357 33.902L33.6677 33.9284C33.8084 33.8932 33.9755 33.8624 34.169 33.836C34.3625 33.8096 34.5032 33.7701 34.5912 33.7173L34.855 33.5326L35.0661 33.2951L35.1452 33.0577L34.8286 31.844L34.3801 31.6593L34.3009 31.712C34.2657 31.7296 34.213 31.7956 34.1426 31.9099C34.0722 32.0243 33.9975 32.1606 33.9183 32.3189C33.8392 32.4772 33.76 32.6443 33.6809 32.8202C33.6017 32.9961 33.5445 33.1456 33.5094 33.2687ZM32.6914 31.6856L32.5595 31.5801C32.4715 31.6681 32.366 31.8264 32.2429 32.055C32.1197 32.2837 32.0582 32.486 32.0582 32.6619C32.0582 32.7323 32.067 32.785 32.0845 32.8202L32.1373 32.6883L32.5595 31.9231C32.6298 31.8176 32.6738 31.7384 32.6914 31.6856ZM40.8972 33.902H40.8708V34.1131C40.8708 34.2362 40.8884 34.3329 40.9236 34.4033L40.9764 34.3769C40.9764 34.4473 40.972 34.5308 40.9632 34.6276C40.9544 34.7243 40.9148 34.7903 40.8445 34.8255L40.7125 35.9864C40.6422 36.004 40.563 36.0128 40.4751 36.0128H40.3431C40.308 36.0128 40.264 36.0304 40.2112 36.0656L40.1848 35.8545C40.1321 35.8897 40.1057 35.9424 40.1057 36.0128V36.1711V36.2766C40.0705 36.2415 40.0265 36.2239 39.9737 36.2239C39.9386 36.2239 39.9254 36.2283 39.9342 36.2371C39.943 36.2459 39.9298 36.2503 39.8946 36.2503C39.8418 36.2503 39.7363 36.2151 39.578 36.1447C39.4197 36.0744 39.2438 36.0392 39.0503 36.0392C38.9447 36.0392 38.8656 36.048 38.8128 36.0656C38.8128 36.0304 38.8216 35.9864 38.8392 35.9336C38.8568 35.8809 38.8656 35.8369 38.8656 35.8017C38.7776 35.7138 38.7204 35.5906 38.6941 35.4323C38.6677 35.274 38.5841 35.1949 38.4434 35.1949H38.3906C38.4434 35.1069 38.4742 35.0058 38.483 34.8914C38.4918 34.7771 38.4962 34.6759 38.4962 34.588C38.4962 34.5528 38.4786 34.4473 38.4434 34.2714L38.417 33.9284V33.7173V33.6118C38.4346 33.5766 38.4742 33.5414 38.5358 33.5062C38.5973 33.471 38.6457 33.4359 38.6809 33.4007C38.6809 33.3655 38.6633 33.3127 38.6281 33.2424C38.5929 33.172 38.5753 33.1016 38.5753 33.0313L38.7073 32.873C38.6897 32.873 38.6809 32.829 38.6809 32.741C38.6809 32.6355 38.6853 32.5124 38.6941 32.3717C38.7029 32.2309 38.7073 32.1166 38.7073 32.0287C38.7073 31.9231 38.6985 31.8703 38.6809 31.8703L38.9183 28.8625C38.9359 28.7393 38.9755 28.6646 39.0371 28.6382C39.0986 28.6118 39.1734 28.5986 39.2613 28.5986C39.3493 28.5986 39.4636 28.6206 39.6044 28.6646C39.7451 28.7085 39.8814 28.7569 40.0133 28.8097C40.1453 28.8625 40.264 28.9196 40.3695 28.9812C40.4751 29.0428 40.5454 29.0999 40.5806 29.1527C40.5982 29.1703 40.629 29.2318 40.673 29.3374C40.7169 29.4429 40.7653 29.5529 40.8181 29.6672C40.8708 29.7815 40.928 29.8871 40.9896 29.9838C41.0511 30.0806 41.1083 30.1289 41.1611 30.1289L41.2402 30.0762C41.4689 29.9354 41.636 29.8079 41.7416 29.6936C41.8471 29.5792 42.0318 29.4957 42.2957 29.4429C42.2957 29.3726 42.4144 29.2714 42.6519 29.1395C42.8893 29.0076 43.1444 28.8756 43.417 28.7437C43.6897 28.6118 43.9315 28.4975 44.1426 28.4007C44.3537 28.304 44.4241 28.2556 44.3537 28.2556C44.4417 28.2556 44.5736 28.2908 44.7495 28.3611C44.9254 28.4315 45.0837 28.537 45.2244 28.6778L45.7257 29.1791L45.3563 29.6804L44.9606 29.8123L45.0133 29.9179C44.9254 30.0234 44.7803 30.085 44.578 30.1025C44.3757 30.1201 44.2218 30.1641 44.1162 30.2345C44.1162 30.2521 44.125 30.2609 44.1426 30.2609L44.169 30.2872C43.9052 30.3576 43.6501 30.4368 43.4038 30.5247C43.1928 30.6127 42.9729 30.705 42.7442 30.8018C42.5155 30.8985 42.3308 31.0084 42.1901 31.1316L41.7943 31.5537C41.7943 31.5361 41.746 31.5581 41.6492 31.6197C41.5525 31.6813 41.4469 31.7604 41.3326 31.8572C41.2183 31.9539 41.1083 32.0594 41.0028 32.1738C40.8972 32.2881 40.8445 32.3892 40.8445 32.4772V32.5036L41.0555 32.5827L40.8972 33.902ZM43.2719 29.4429C43.0257 29.5133 42.8146 29.61 42.6387 29.7332L42.3748 29.8915L42.4012 29.9442C42.6299 29.8211 42.8629 29.7112 43.1004 29.6144C43.3379 29.5177 43.5446 29.4517 43.7205 29.4165C43.6501 29.4165 43.5709 29.4165 43.483 29.4165C43.395 29.4165 43.3247 29.4253 43.2719 29.4429ZM41.8999 30.0234C41.8647 30.0586 41.7855 30.1157 41.6624 30.1949C41.5393 30.2741 41.4601 30.3312 41.4249 30.3664L41.2666 30.4983H41.293C41.3282 30.4456 41.3898 30.3972 41.4777 30.3532C41.5657 30.3092 41.658 30.2653 41.7548 30.2213C41.8515 30.1773 41.9351 30.1421 42.0054 30.1157C42.0758 30.0894 42.111 30.0586 42.111 30.0234C42.111 29.9882 42.0582 29.953 41.9526 29.9179C41.9351 29.9179 41.9263 29.931 41.9263 29.9574C41.9263 29.9838 41.9175 30.0058 41.8999 30.0234ZM47.731 31.6329V31.3954C47.7134 31.2899 47.6826 31.1975 47.6387 31.1184C47.5947 31.0392 47.5727 30.9381 47.5727 30.8149V30.7622C47.5551 30.7446 47.5463 30.727 47.5463 30.7094L47.5991 30.6566C47.6343 30.5335 47.6826 30.3664 47.7442 30.1553C47.8058 29.9442 47.8366 29.742 47.8366 29.5485L47.7838 29.4165C47.7838 29.3462 47.8146 29.1835 47.8761 28.9284C47.9377 28.6734 47.9861 28.3699 48.0213 28.0181C48.0213 27.983 48.0169 27.939 48.0081 27.8862C47.9993 27.8334 47.9949 27.7895 47.9949 27.7543C47.9949 27.4201 48.0389 27.143 48.1268 26.9232C48.2148 26.7033 48.2587 26.435 48.2587 26.1184C48.2587 26.0129 48.2675 25.8722 48.2851 25.6963C48.3027 25.5204 48.3291 25.3533 48.3643 25.1949C48.3995 25.0366 48.4434 24.8959 48.4962 24.7728C48.549 24.6497 48.6017 24.5881 48.6545 24.5881L49.1822 24.2979C49.2526 24.3154 49.2965 24.3286 49.3141 24.3374C49.3317 24.3462 49.3493 24.3506 49.3669 24.3506C49.3669 24.3506 49.4021 24.333 49.4725 24.2979C49.5428 24.3154 49.6571 24.333 49.8155 24.3506C49.9738 24.3682 50.1365 24.3946 50.3036 24.4298C50.4707 24.465 50.6334 24.5133 50.7917 24.5749C50.95 24.6365 51.0644 24.72 51.1347 24.8256L50.8973 25.3796C50.8973 25.45 50.8753 25.5687 50.8313 25.7358C50.7873 25.9029 50.7433 26.0788 50.6994 26.2635C50.6554 26.4482 50.6114 26.6285 50.5674 26.8044C50.5235 26.9803 50.5015 27.1035 50.5015 27.1738C50.5015 27.2442 50.5103 27.3717 50.5279 27.5564C50.5455 27.7411 50.563 27.8774 50.5806 27.9654C50.5806 28.0005 50.5586 28.0445 50.5147 28.0973C50.4707 28.1501 50.4487 28.194 50.4487 28.2292C50.4839 28.2292 50.5015 28.2468 50.5015 28.282C50.5015 28.3172 50.4795 28.3743 50.4355 28.4535C50.3915 28.5326 50.3695 28.6426 50.3695 28.7833L50.3959 28.9416L50.3432 29.1527L50.3959 29.1791C50.3959 29.1791 50.3915 29.2494 50.3827 29.3902C50.3739 29.5309 50.3608 29.6804 50.3432 29.8387C50.3256 29.997 50.3124 30.1465 50.3036 30.2872C50.2948 30.428 50.2904 30.5071 50.2904 30.5247L50.3959 30.8677V31.026L50.2112 31.5801L50.3959 31.5537C50.4487 31.5185 50.5411 31.4746 50.673 31.4218C50.8049 31.369 50.9412 31.3163 51.082 31.2635C51.2227 31.2107 51.359 31.1579 51.4909 31.1052C51.6229 31.0524 51.7152 31.0172 51.768 30.9996C51.8032 30.9996 51.8999 30.9513 52.0582 30.8545C52.2165 30.7578 52.3133 30.7094 52.3484 30.7094H52.6915C52.9377 30.7094 53.2016 30.7314 53.483 30.7754C53.7645 30.8193 54.0371 30.8413 54.301 30.8413L54.6704 31.8703L54.4329 32.1342C54.3449 32.486 54.2966 32.7894 54.2878 33.0445C54.279 33.2995 54.2658 33.6118 54.2482 33.9811C54.2834 34.1219 54.301 34.2098 54.301 34.245C54.2482 34.4913 54.1954 34.7771 54.1426 35.1025C54.0899 35.4279 54.0635 35.7401 54.0635 36.0392C54.0635 36.2151 54.0723 36.3382 54.0899 36.4086L53.9579 36.4877C53.9052 36.5053 53.8568 36.5493 53.8128 36.6196C53.7689 36.69 53.7029 36.7252 53.6149 36.7252C53.5798 36.7252 53.505 36.69 53.3907 36.6196C53.2763 36.5493 53.184 36.5141 53.1136 36.5141H53.0608L53.1136 36.5933L53.0608 36.646C53.0608 36.6812 53.096 36.6988 53.1664 36.6988H53.2455V36.8835C52.8761 36.8659 52.5947 36.7208 52.4012 36.4481C52.2077 36.1755 52.111 35.8897 52.111 35.5906C52.111 35.0277 52.0714 34.4781 51.9922 33.9416C51.9131 33.4051 51.8735 32.8818 51.8735 32.3717H51.8207C51.5921 32.3717 51.4118 32.42 51.2798 32.5168C51.1479 32.6135 50.9852 32.6619 50.7917 32.6619L50.7126 32.741C50.7126 32.7586 50.6862 32.7762 50.6334 32.7938L50.5806 32.7674C50.4751 32.8026 50.3344 32.873 50.1585 32.9785C49.9826 33.0841 49.8682 33.2072 49.8155 33.3479C49.8858 33.3479 49.921 33.3919 49.921 33.4798C49.921 33.603 49.8638 33.7041 49.7495 33.7833C49.6352 33.8624 49.578 33.9548 49.578 34.0603L49.4988 34.3769L49.6308 34.7463L49.4461 35.1949V35.5379L49.3933 35.7753L49.5252 36.2766L49.3669 36.7516L48.6017 36.6724C48.5666 36.6724 48.5358 36.668 48.5094 36.6592C48.483 36.6504 48.461 36.646 48.4434 36.646H48.3907L48.0213 36.5405L47.7838 36.3822C47.7662 36.3646 47.7266 36.2942 47.6651 36.1711C47.6035 36.048 47.5639 35.9688 47.5463 35.9336L47.5991 35.6962L47.4936 35.7489L47.3352 35.5906L47.3089 35.4851L47.4408 35.1949L47.3089 35.1421V34.588C47.3264 34.588 47.3792 34.5352 47.4672 34.4297L47.5463 34.2978L47.5727 34.0603L47.4408 34.0075L47.4672 33.7701L47.5991 33.6381C47.5991 33.5854 47.6167 33.4974 47.6519 33.3743C47.687 33.2512 47.7046 33.172 47.7046 33.1368L47.6255 32.9785V32.6091L47.6519 32.398L47.5199 32.0023L47.6255 32.055C47.6255 32.0199 47.6431 31.9539 47.6783 31.8572C47.7134 31.7604 47.731 31.6856 47.731 31.6329ZM47.5463 35.2212L47.5991 35.3532V35.5379L47.731 35.4587L47.7046 35.1949L47.5463 35.2212ZM47.6519 34.8255H47.6255C47.5903 34.8255 47.5727 34.8518 47.5727 34.9046C47.5727 34.9926 47.5991 35.0365 47.6519 35.0365C47.7046 35.0365 47.731 35.0014 47.731 34.931C47.731 34.8606 47.7046 34.8255 47.6519 34.8255ZM47.9685 34.7991H47.9421C47.9069 34.8343 47.8893 34.8606 47.8893 34.8782C47.8893 34.8958 47.9069 34.9046 47.9421 34.9046C47.9949 34.9046 48.0213 34.887 48.0213 34.8518C48.0213 34.8167 48.0037 34.7991 47.9685 34.7991ZM61.8208 30.7622L61.768 30.4192L61.8999 30.1025L61.9791 30.2345L61.9263 30.34L61.9791 30.6039H62.111L62.3221 29.9706L62.2957 29.8387L62.111 29.8915C62.1286 29.8739 62.1374 29.8475 62.1374 29.8123C62.1374 29.7771 62.1286 29.7508 62.111 29.7332C62.0934 29.7156 62.067 29.6628 62.0318 29.5749L62.2165 29.0999V28.8888C62.2165 28.8009 62.2517 28.7569 62.3221 28.7569L62.2957 28.3875H62.3749C62.41 28.3875 62.454 28.3611 62.5068 28.3084L63.2456 28.3875L63.483 28.282L63.826 28.3875L63.9316 28.3084L64.0107 28.3611H64.1427L64.5912 28.7305V28.8097L64.8815 28.968C64.899 29.0208 64.9254 29.0823 64.9606 29.1527C64.9958 29.2231 65.0134 29.2758 65.0134 29.311L65.0398 29.3902L64.9606 29.4429L64.9078 29.7595C64.9078 29.8123 64.8815 29.8783 64.8287 29.9574C64.7759 30.0366 64.7495 30.1113 64.7495 30.1817L64.644 30.7358C64.644 30.7886 64.6 30.9029 64.5121 31.0788C64.4241 31.2547 64.3801 31.3778 64.3801 31.4482V31.7912C64.3801 31.8615 64.3274 32.0331 64.2218 32.3057C64.1163 32.5783 64.0635 32.8818 64.0635 33.216V33.4271C64.0635 33.4622 64.0547 33.4798 64.0371 33.4798L64.0107 33.4534C63.9756 33.4359 63.958 33.4271 63.958 33.4271V33.4534L63.826 33.6381V34.2186L63.7205 34.4825L63.826 35.0365V35.4059C63.826 35.5291 63.8172 35.639 63.7997 35.7357C63.7821 35.8325 63.7557 35.8809 63.7205 35.8809H63.5886C63.4127 35.9688 63.2324 36.004 63.0477 35.9864C62.863 35.9688 62.6475 36.0392 62.4012 36.1975H62.2693C62.0758 36.1975 61.9263 36.1535 61.8208 36.0656L61.1611 35.6434V34.7463C60.8797 34.9222 60.6334 35.0805 60.4223 35.2212C60.2113 35.362 59.8858 35.4499 59.4461 35.4851L58.8656 35.5379L58.6545 35.5115L58.5226 35.5906L58.4698 35.4587C58.4347 35.4587 58.3775 35.4543 58.2983 35.4455C58.2192 35.4367 58.1532 35.4323 58.1004 35.4323H58.0213C57.9157 35.4323 57.775 35.3927 57.5991 35.3136C57.4232 35.2344 57.2517 35.1289 57.0846 34.997C56.9175 34.865 56.7724 34.7111 56.6492 34.5352C56.5261 34.3593 56.4558 34.1746 56.4382 33.9811L56.2535 33.4271L56.3854 33.0577L56.4118 32.398C56.4118 32.3453 56.4206 32.2749 56.4382 32.187C56.4558 32.099 56.4733 32.0287 56.4909 31.9759C56.4909 31.9583 56.4865 31.9363 56.4777 31.9099C56.4689 31.8835 56.4646 31.8615 56.4646 31.844L56.5701 31.501V31.4482V31.2635C56.5701 31.1931 56.5789 31.1492 56.5965 31.1316L56.6756 30.9733C56.6932 30.9205 56.7064 30.8369 56.7152 30.7226C56.724 30.6083 56.7284 30.5335 56.7284 30.4983L56.8076 30.2872L57.045 29.8915V29.7332C57.0802 29.5924 57.1154 29.4121 57.1506 29.1923C57.1857 28.9724 57.3001 28.8625 57.4936 28.8625C57.6343 28.8625 57.7882 28.9152 57.9553 29.0208C58.1224 29.1263 58.2763 29.2538 58.4171 29.4033C58.5578 29.5529 58.6765 29.7068 58.7733 29.8651C58.87 30.0234 58.9184 30.1553 58.9184 30.2609C58.9184 30.4368 58.8744 30.6127 58.7865 30.7886C58.6985 30.9645 58.6545 31.1843 58.6545 31.4482L58.6809 31.6065L58.2851 33.3215L58.3907 33.6381C58.4259 33.7261 58.461 33.814 58.4962 33.902C58.5314 33.9899 58.6018 34.0339 58.7073 34.0339C59.2174 34.0339 59.688 33.946 60.1189 33.7701C60.5499 33.5942 60.9061 33.3303 61.1875 32.9785L61.2667 32.873C61.2667 32.8378 61.2667 32.7982 61.2667 32.7542C61.2667 32.7103 61.2755 32.6707 61.2931 32.6355C61.3106 32.5827 61.3282 32.5388 61.3458 32.5036L61.3986 32.6091L61.9527 32.2133C61.9351 32.1782 61.9307 32.1474 61.9395 32.121C61.9483 32.0946 61.9263 32.0638 61.8735 32.0287C61.8208 32.0814 61.7768 32.1078 61.7416 32.1078C61.7592 32.1078 61.68 32.0902 61.5041 32.055C61.5041 31.8791 61.5481 31.7428 61.6361 31.6461C61.724 31.5493 61.7768 31.457 61.7944 31.369H61.768C61.7152 31.369 61.6624 31.3163 61.6097 31.2107C61.5745 31.2107 61.5481 31.2195 61.5305 31.2371C61.5129 31.2547 61.4953 31.2635 61.4778 31.2635C61.5129 31.2107 61.5789 31.1272 61.6756 31.0128C61.7724 30.8985 61.8208 30.8149 61.8208 30.7622ZM61.8999 31.8703C61.9351 31.8879 61.9527 31.8967 61.9527 31.8967C62.0055 31.8967 62.045 31.8528 62.0714 31.7648C62.0978 31.6769 62.155 31.5361 62.2429 31.3426C62.1726 31.3426 62.0978 31.4086 62.0187 31.5405C61.9395 31.6725 61.8999 31.7824 61.8999 31.8703ZM61.7944 31.2107V31.0788H61.7152L61.6888 31.1052C61.6888 31.1052 61.724 31.1404 61.7944 31.2107ZM61.9791 30.9205L62.0055 30.9733L62.0582 30.8149L61.9791 30.9205ZM66.6493 34.5352C66.6493 34.5176 66.6537 34.4561 66.6625 34.3505C66.6713 34.245 66.6801 34.1351 66.6889 34.0207C66.6976 33.9064 66.7064 33.8008 66.7152 33.7041C66.724 33.6074 66.7284 33.5414 66.7284 33.5062L66.8604 33.216C66.8604 33.1808 66.8867 33.1236 66.9395 33.0445C66.9923 32.9653 67.0187 32.9082 67.0187 32.873L67.1242 32.9521V32.5036L67.2297 32.2925C67.2297 32.2749 67.2253 32.2573 67.2166 32.2397C67.2078 32.2221 67.2034 32.1958 67.2034 32.1606C67.2034 32.1078 67.2078 32.0506 67.2166 31.9891C67.2253 31.9275 67.2297 31.8791 67.2297 31.844C67.1418 31.844 67.089 31.8528 67.0714 31.8703L67.0187 31.8967L66.9131 31.844C66.9131 31.7912 66.9219 31.7472 66.9395 31.712L66.9923 31.5273C67.0275 31.2811 67.0582 31.0436 67.0846 30.8149C67.111 30.5863 67.1242 30.3488 67.1242 30.1025L67.4936 27.5168C67.4936 27.4816 67.498 27.3937 67.5068 27.253C67.5156 27.1123 67.5376 26.9627 67.5728 26.8044L67.6783 26.1712L67.7838 25.8546C67.7838 25.8018 67.8278 25.6919 67.9158 25.5248C68.0037 25.3576 68.0477 25.2477 68.0477 25.1949V25.0894V25.0102C68.0477 24.764 68.1576 24.6233 68.3775 24.5881C68.5974 24.5529 68.8392 24.5001 69.1031 24.4298L69.235 24.5089C69.3054 24.5969 69.367 24.6277 69.4197 24.6013C69.4725 24.5749 69.578 24.6321 69.7363 24.7728L70.0266 25.0102L70.1585 25.1949V25.3269C70.1585 25.362 70.1629 25.3972 70.1717 25.4324C70.1805 25.4676 70.1849 25.5028 70.1849 25.5379L70.2113 25.7226C70.2113 25.9689 70.1497 26.1844 70.0266 26.3691C69.9035 26.5538 69.8419 26.7692 69.8419 27.0155V27.121L69.7363 27.3321C69.7188 27.4201 69.71 27.5168 69.71 27.6224C69.71 27.7279 69.71 27.8159 69.71 27.8862L69.7363 27.9918C69.7363 28.0269 69.7232 28.1545 69.6968 28.3743C69.6704 28.5942 69.6572 28.7217 69.6572 28.7569L69.71 28.8625C69.71 28.9152 69.6924 28.9416 69.6572 28.9416L69.71 28.9944V29.8915C69.6748 29.8915 69.6572 29.9091 69.6572 29.9442V30.1025L69.7363 30.0498C69.7188 30.085 69.7056 30.1597 69.6968 30.2741C69.688 30.3884 69.6572 30.5423 69.6044 30.7358C69.6748 30.6478 69.7847 30.5599 69.9342 30.4719C70.0838 30.384 70.2509 30.3048 70.4356 30.2345C70.6203 30.1641 70.8181 30.1025 71.0292 30.0498C71.2403 29.997 71.4338 29.9442 71.6097 29.8915C71.6273 29.8739 71.6889 29.8563 71.7944 29.8387C71.8999 29.8211 71.9791 29.7947 72.0319 29.7595L72.3485 29.8123H72.454C72.5244 29.8123 72.586 29.7947 72.6387 29.7595L73.1137 29.8387L73.8261 30.5775L73.8788 30.8149L73.9844 31.3163L73.958 31.4218H74.0108C73.9932 31.457 73.9844 31.4746 73.9844 31.4746C73.9844 31.4922 73.9888 31.5054 73.9976 31.5141C74.0064 31.5229 74.0108 31.5449 74.0108 31.5801V31.6593C74.0108 31.6944 74.002 31.734 73.9844 31.778C73.9668 31.822 73.958 31.8615 73.958 31.8967L73.9844 32.0023C73.9844 32.0902 73.9712 32.187 73.9448 32.2925C73.9184 32.398 73.8964 32.486 73.8788 32.5564L73.7733 32.6883C73.7733 32.741 73.7909 32.7674 73.8261 32.7674C73.8261 32.8906 73.8129 33.0005 73.7865 33.0972C73.7601 33.194 73.7469 33.2512 73.7469 33.2687V33.3215V33.3479V33.3215C73.7469 33.3039 73.7557 33.2951 73.7733 33.2951V33.3215L73.6941 33.5854L73.6414 33.6381L73.6941 33.8756C73.6941 33.946 73.6766 34.0823 73.6414 34.2846C73.6062 34.4869 73.5886 34.6056 73.5886 34.6408L73.4303 35.3532C73.3951 35.4587 73.2808 35.5467 73.0873 35.617C72.8938 35.6874 72.7619 35.7489 72.6915 35.8017L72.2166 35.8809C72.1286 35.8809 71.9923 35.8853 71.8076 35.8941C71.6229 35.9029 71.4074 35.9072 71.1612 35.9072C70.8093 35.9072 70.4707 35.8853 70.1453 35.8413C69.8199 35.7973 69.6572 35.6786 69.6572 35.4851C69.4109 35.4851 69.235 35.362 69.1295 35.1157C69.1295 35.1333 69.1251 35.1553 69.1163 35.1817C69.1075 35.208 69.1031 35.2564 69.1031 35.3268C69.1031 35.4323 69.1119 35.5203 69.1295 35.5906C69.0767 35.661 69.0195 35.7489 68.958 35.8545C68.8964 35.96 68.8392 36.0304 68.7865 36.0656C68.7513 36.048 68.7205 36.0172 68.6941 35.9732C68.6677 35.9292 68.637 35.9072 68.6018 35.9072C68.5666 35.9072 68.5226 35.9336 68.4698 35.9864C68.206 35.8281 67.9641 35.7489 67.7443 35.7489C67.5244 35.7489 67.3309 35.7357 67.1638 35.7094C66.9967 35.683 66.8647 35.6082 66.768 35.4851C66.6713 35.362 66.6229 35.1157 66.6229 34.7463C66.6229 34.7111 66.6273 34.6759 66.6361 34.6408C66.6449 34.6056 66.6493 34.5704 66.6493 34.5352ZM69.0767 34.6672L69.1295 34.7199C69.5517 34.6847 69.9518 34.6144 70.33 34.5088C70.7082 34.4033 71.0468 34.3066 71.3458 34.2186L71.5042 34.1658C71.5393 34.1482 71.5657 34.1395 71.5833 34.1395C71.6009 34.1395 71.6185 34.1307 71.6361 34.1131L71.7416 33.6909L72.0055 31.3954V31.026C71.8823 31.0788 71.7196 31.136 71.5174 31.1975C71.3151 31.2591 71.1084 31.3295 70.8973 31.4086C70.6862 31.4878 70.4927 31.5801 70.3168 31.6856C70.1409 31.7912 70.0266 31.9055 69.9738 32.0287C69.9562 32.0638 69.9474 32.099 69.9474 32.1342C69.9474 32.1694 69.9386 32.1958 69.921 32.2133L69.3142 33.0049L69.235 33.3743V33.4534C69.235 33.471 69.2262 33.5238 69.2086 33.6118C69.1911 33.6997 69.1823 33.7613 69.1823 33.7964C69.1823 33.814 69.1998 33.8228 69.235 33.8228C69.235 33.858 69.2262 33.9064 69.2086 33.968C69.1911 34.0295 69.1823 34.0779 69.1823 34.1131L69.0767 34.6672ZM67.7574 32.2133L67.6783 32.2397L67.5991 32.398C67.5991 32.4684 67.5771 32.5739 67.5332 32.7147C67.4892 32.8554 67.4672 32.9433 67.4672 32.9785C67.4672 33.0137 67.4716 33.0357 67.4804 33.0445C67.4892 33.0533 67.4936 33.0753 67.4936 33.1104V33.2687H67.5991L67.6783 33.0841C67.6783 33.0313 67.6959 32.9565 67.7311 32.8598C67.7662 32.763 67.7838 32.6795 67.7838 32.6091C67.7838 32.5739 67.7794 32.5344 67.7706 32.4904C67.7618 32.4464 67.7574 32.4068 67.7574 32.3717V32.2133ZM67.1242 33.216H67.0451C66.9923 33.2512 66.9571 33.3039 66.9395 33.3743C66.9219 33.4446 66.9131 33.4886 66.9131 33.5062V33.6381L67.0451 33.5062L67.1242 33.216ZM66.9131 33.8228L66.8604 34.0339C66.8428 34.0515 66.834 34.0691 66.834 34.0867L66.8076 34.4033L66.8867 34.2978V34.1922C66.8867 34.157 66.8911 34.1263 66.8999 34.0999C66.9087 34.0735 66.9131 34.0427 66.9131 34.0075V33.8228ZM67.5464 31.4746C67.5112 31.4394 67.4848 31.4218 67.4672 31.4218C67.4144 31.4218 67.3881 31.457 67.3881 31.5273C67.3881 31.5801 67.4144 31.6065 67.4672 31.6065C67.5024 31.6065 67.5288 31.5625 67.5464 31.4746ZM67.4936 33.5326L67.3881 33.8228L67.4936 33.7173V33.5326Z" fill="white"/>
</g>
<path d="M0.817993 47.0454H3.54557V47.585H1.38092V48.8616H3.31343V49.4012H1.38092V50.6952H3.62681V51.2406H0.817993V47.0454ZM6.50527 48.8384H7.10882L5.82628 51.3103H5.79726L4.46249 48.8384H5.10667L5.83208 50.3702L6.50527 48.8384ZM9.10517 50.8345C9.30635 50.8345 9.50173 50.7648 9.69131 50.6256L9.94085 51.0259C9.81318 51.111 9.67487 51.1778 9.52591 51.2261C9.37696 51.2745 9.23284 51.2987 9.09356 51.2987C8.82661 51.2987 8.59351 51.2435 8.39426 51.1333C8.19501 51.023 8.04122 50.8712 7.93289 50.6778C7.82457 50.4844 7.7704 50.2658 7.7704 50.0221C7.7704 49.7861 7.8294 49.5705 7.9474 49.3751C8.0654 49.1798 8.22693 49.025 8.43198 48.9109C8.63703 48.7968 8.86143 48.7397 9.10517 48.7397C9.41855 48.7397 9.68067 48.8316 9.89152 49.0154C10.1024 49.1991 10.2465 49.4554 10.3239 49.7842L8.42038 50.4515C8.49002 50.5714 8.58384 50.6652 8.70184 50.7329C8.81984 50.8006 8.95428 50.8345 9.10517 50.8345ZM9.06455 49.1691C8.84402 49.1691 8.66218 49.2465 8.51903 49.4012C8.37588 49.556 8.30431 49.7532 8.30431 49.9931C8.30431 50.0511 8.30624 50.0956 8.31011 50.1265L9.70872 49.6101C9.65069 49.4786 9.56847 49.3722 9.46208 49.291C9.35568 49.2097 9.22317 49.1691 9.06455 49.1691ZM11.8676 49.407C11.9295 49.2755 12.0175 49.1594 12.1316 49.0589C12.2457 48.9583 12.3666 48.8809 12.4943 48.8268C12.622 48.7726 12.7342 48.7436 12.8309 48.7397L12.8077 49.2794C12.6336 49.2716 12.4759 49.3064 12.3347 49.3838C12.1935 49.4612 12.0833 49.5685 12.0039 49.7059C11.9246 49.8432 11.885 49.9892 11.885 50.1439V51.2406H11.3453V48.8384H11.8269L11.8676 49.407ZM15.663 48.8384H16.162L14.6125 52.3953H14.0786L14.63 51.1594L13.5157 48.8384H14.1251L14.9027 50.5501L15.663 48.8384ZM16.8062 50.0163C16.8062 49.7803 16.8633 49.5647 16.9774 49.3693C17.0915 49.174 17.2502 49.0202 17.4533 48.908C17.6564 48.7958 17.8856 48.7397 18.141 48.7397C18.3963 48.7397 18.6236 48.7958 18.8229 48.908C19.0221 49.0202 19.1769 49.173 19.2871 49.3664C19.3974 49.5598 19.4525 49.7765 19.4525 50.0163C19.4525 50.2561 19.3974 50.4737 19.2871 50.6691C19.1769 50.8644 19.0212 51.0182 18.82 51.1304C18.6188 51.2426 18.3886 51.2987 18.1294 51.2987C17.8779 51.2987 17.6516 51.2455 17.4504 51.1391C17.2492 51.0327 17.0915 50.8828 16.9774 50.6894C16.8633 50.496 16.8062 50.2716 16.8062 50.0163ZM17.3517 50.0221C17.3517 50.173 17.3856 50.3122 17.4533 50.4399C17.521 50.5675 17.6138 50.6681 17.7318 50.7416C17.8498 50.8151 17.9804 50.8519 18.1236 50.8519C18.348 50.8519 18.5337 50.7726 18.6807 50.614C18.8277 50.4554 18.9012 50.2581 18.9012 50.0221C18.9012 49.7861 18.8277 49.5879 18.6807 49.4273C18.5337 49.2668 18.348 49.1865 18.1236 49.1865C17.9766 49.1865 17.845 49.2242 17.7289 49.2997C17.6129 49.3751 17.521 49.4767 17.4533 49.6043C17.3856 49.732 17.3517 49.8712 17.3517 50.0221ZM22.0176 48.7455C22.242 48.7455 22.4277 48.8123 22.5747 48.9457C22.7218 49.0792 22.7972 49.2523 22.8011 49.465V51.2406H22.2556V49.6507C22.2478 49.5153 22.2072 49.409 22.1337 49.3316C22.0602 49.2542 21.9499 49.2136 21.8029 49.2097C21.5901 49.2097 21.4141 49.2948 21.2748 49.465C21.1355 49.6353 21.0659 49.8519 21.0659 50.1149V51.2406H20.5262V48.8384H21.0136L21.0485 49.3026C21.1336 49.1285 21.2612 48.9921 21.4315 48.8935C21.6017 48.7949 21.7971 48.7455 22.0176 48.7455ZM25.2095 50.8345C25.4106 50.8345 25.606 50.7648 25.7956 50.6256L26.0451 51.0259C25.9175 51.111 25.7791 51.1778 25.6302 51.2261C25.4812 51.2745 25.3371 51.2987 25.1978 51.2987C24.9309 51.2987 24.6978 51.2435 24.4985 51.1333C24.2993 51.023 24.1455 50.8712 24.0372 50.6778C23.9288 50.4844 23.8747 50.2658 23.8747 50.0221C23.8747 49.7861 23.9337 49.5705 24.0517 49.3751C24.1697 49.1798 24.3312 49.025 24.5363 48.9109C24.7413 48.7968 24.9657 48.7397 25.2095 48.7397C25.5228 48.7397 25.785 48.8316 25.9958 49.0154C26.2067 49.1991 26.3508 49.4554 26.4282 49.7842L24.5247 50.4515C24.5943 50.5714 24.6881 50.6652 24.8061 50.7329C24.9241 50.8006 25.0586 50.8345 25.2095 50.8345ZM25.1688 49.1691C24.9483 49.1691 24.7665 49.2465 24.6233 49.4012C24.4802 49.556 24.4086 49.7532 24.4086 49.9931C24.4086 50.0511 24.4105 50.0956 24.4144 50.1265L25.813 49.6101C25.755 49.4786 25.6728 49.3722 25.5664 49.291C25.46 49.2097 25.3275 49.1691 25.1688 49.1691ZM27.7223 47.0106L27.6991 48.467H27.229V47.0106H27.7223ZM29.4343 51.2929C29.2563 51.2929 29.0871 51.2619 28.9265 51.2C28.7659 51.1381 28.6354 51.0472 28.5348 50.9273L28.7669 50.614C28.8636 50.7068 28.9652 50.7784 29.0716 50.8286C29.178 50.8789 29.2834 50.9041 29.3879 50.9041C29.5155 50.9041 29.62 50.8789 29.7012 50.8286C29.7825 50.7784 29.8231 50.701 29.8231 50.5965C29.8231 50.5153 29.798 50.4495 29.7477 50.3993C29.6974 50.349 29.6403 50.3122 29.5765 50.289C29.5126 50.2658 29.4053 50.231 29.2544 50.1846C28.8443 50.053 28.6392 49.819 28.6392 49.4825C28.6392 49.2813 28.7137 49.1092 28.8627 48.966C29.0116 48.8229 29.2196 48.7513 29.4865 48.7513C29.6567 48.7513 29.8076 48.7726 29.9392 48.8152C30.0707 48.8577 30.1926 48.9254 30.3048 49.0183L30.0901 49.349C30.0282 49.2832 29.9498 49.231 29.855 49.1923C29.7602 49.1536 29.6703 49.1324 29.5852 49.1285C29.4768 49.1285 29.384 49.1546 29.3066 49.2068C29.2292 49.2591 29.1905 49.3297 29.1905 49.4186C29.1905 49.4921 29.2157 49.5531 29.266 49.6014C29.3163 49.6498 29.3685 49.6846 29.4227 49.7059C29.4768 49.7271 29.5832 49.7629 29.7419 49.8132C29.9392 49.879 30.093 49.9641 30.2032 50.0685C30.3135 50.173 30.3686 50.3142 30.3686 50.4921C30.3686 50.7242 30.2874 50.9157 30.1249 51.0666C29.9624 51.2174 29.7322 51.2929 29.4343 51.2929ZM35.1738 48.7397C35.3982 48.7397 35.6013 48.7939 35.7831 48.9022C35.965 49.0105 36.1081 49.1623 36.2126 49.3577C36.3171 49.5531 36.3693 49.7784 36.3693 50.0337C36.3693 50.2851 36.3132 50.5066 36.201 50.6981C36.0888 50.8896 35.934 51.0375 35.7367 51.142C35.5394 51.2464 35.3189 51.2987 35.0751 51.2987C34.901 51.2987 34.7347 51.2609 34.5761 51.1855C34.4174 51.1101 34.2898 51.0085 34.193 50.8809V52.3953H33.6533V48.7978H34.1234L34.1698 49.2039C34.2936 49.0647 34.4416 48.9525 34.6138 48.8674C34.7859 48.7823 34.9726 48.7397 35.1738 48.7397ZM34.9707 50.8635C35.1216 50.8635 35.2618 50.8277 35.3914 50.7561C35.521 50.6846 35.6245 50.5859 35.7019 50.4602C35.7793 50.3345 35.818 50.1942 35.818 50.0395C35.818 49.8809 35.7822 49.7378 35.7106 49.6101C35.639 49.4825 35.5413 49.3819 35.4175 49.3084C35.2937 49.2349 35.1564 49.1981 35.0055 49.1981C34.8004 49.1981 34.6254 49.2552 34.4803 49.3693C34.3352 49.4834 34.2395 49.6372 34.193 49.8306V50.231C34.224 50.4167 34.312 50.5685 34.4571 50.6865C34.6022 50.8045 34.7734 50.8635 34.9707 50.8635ZM37.9652 49.407C38.0271 49.2755 38.1151 49.1594 38.2293 49.0589C38.3434 48.9583 38.4643 48.8809 38.592 48.8268C38.7196 48.7726 38.8318 48.7436 38.9286 48.7397L38.9053 49.2794C38.7312 49.2716 38.5736 49.3064 38.4324 49.3838C38.2912 49.4612 38.1809 49.5685 38.1016 49.7059C38.0223 49.8432 37.9826 49.9892 37.9826 50.1439V51.2406H37.4429V48.8384H37.9246L37.9652 49.407ZM39.9732 48.8384H40.5129V51.2406H39.9732V48.8384ZM39.9325 47.9738C39.9325 47.8887 39.9654 47.8171 40.0312 47.7591C40.097 47.7011 40.1724 47.6721 40.2575 47.6721C40.3426 47.6721 40.4171 47.7011 40.481 47.7591C40.5448 47.8171 40.5767 47.8887 40.5767 47.9738C40.5767 48.0589 40.5448 48.1305 40.481 48.1885C40.4171 48.2465 40.3426 48.2755 40.2575 48.2755C40.1724 48.2755 40.097 48.2465 40.0312 48.1885C39.9654 48.1305 39.9325 48.0589 39.9325 47.9738ZM43.4842 48.8384H44.0877L42.8052 51.3103H42.7762L41.4414 48.8384H42.0856L42.811 50.3702L43.4842 48.8384ZM46.8849 48.8384H47.384V51.2406H46.8443V50.8461C46.7592 50.9582 46.6354 51.0617 46.4729 51.1565C46.3104 51.2513 46.1266 51.2987 45.9216 51.2987C45.6933 51.2987 45.4873 51.2493 45.3035 51.1507C45.1198 51.052 44.9747 50.908 44.8683 50.7184C44.7619 50.5289 44.7087 50.3026 44.7087 50.0395C44.7087 49.7765 44.7638 49.5473 44.8741 49.3519C44.9844 49.1565 45.1333 49.0057 45.3209 48.8993C45.5086 48.7929 45.7165 48.7397 45.9448 48.7397C46.1499 48.7397 46.3278 48.7842 46.4787 48.8732C46.6296 48.9622 46.7515 49.0782 46.8443 49.2213L46.8849 48.8384ZM46.0667 50.8519C46.264 50.8519 46.4333 50.7967 46.5745 50.6865C46.7157 50.5762 46.8056 50.4263 46.8443 50.2368V49.761C46.7979 49.5908 46.7012 49.4525 46.5542 49.3461C46.4071 49.2397 46.2388 49.1865 46.0493 49.1865C45.9061 49.1865 45.7736 49.2213 45.6517 49.291C45.5299 49.3606 45.4331 49.4583 45.3616 49.584C45.29 49.7097 45.2542 49.8519 45.2542 50.0105C45.2542 50.1652 45.291 50.3064 45.3645 50.4341C45.438 50.5617 45.5366 50.6633 45.6604 50.7387C45.7842 50.8141 45.9197 50.8519 46.0667 50.8519ZM48.9045 47.7823H49.45V48.8442H50.1058V49.2736H49.45V51.2406H48.9045V49.2736H48.4635V48.8442H48.9045V47.7823ZM52.2356 50.8345C52.4368 50.8345 52.6322 50.7648 52.8218 50.6256L53.0713 51.0259C52.9436 51.111 52.8053 51.1778 52.6564 51.2261C52.5074 51.2745 52.3633 51.2987 52.224 51.2987C51.9571 51.2987 51.724 51.2435 51.5247 51.1333C51.3255 51.023 51.1717 50.8712 51.0634 50.6778C50.955 50.4844 50.9009 50.2658 50.9009 50.0221C50.9009 49.7861 50.9599 49.5705 51.0779 49.3751C51.1959 49.1798 51.3574 49.025 51.5624 48.9109C51.7675 48.7968 51.9919 48.7397 52.2356 48.7397C52.549 48.7397 52.8111 48.8316 53.022 49.0154C53.2328 49.1991 53.377 49.4554 53.4543 49.7842L51.5508 50.4515C51.6205 50.5714 51.7143 50.6652 51.8323 50.7329C51.9503 50.8006 52.0847 50.8345 52.2356 50.8345ZM52.195 49.1691C51.9745 49.1691 51.7926 49.2465 51.6495 49.4012C51.5063 49.556 51.4348 49.7532 51.4348 49.9931C51.4348 50.0511 51.4367 50.0956 51.4406 50.1265L52.8392 49.6101C52.7811 49.4786 52.6989 49.3722 52.5925 49.291C52.4861 49.2097 52.3536 49.1691 52.195 49.1691ZM56.8899 47.7823H57.4354V48.8442H58.0912V49.2736H57.4354V51.2406H56.8899V49.2736H56.4489V48.8442H56.8899V47.7823ZM61.0625 48.8384H61.5616V51.2406H61.0219V50.8461C60.9368 50.9582 60.813 51.0617 60.6505 51.1565C60.488 51.2513 60.3042 51.2987 60.0992 51.2987C59.8709 51.2987 59.6649 51.2493 59.4811 51.1507C59.2973 51.052 59.1523 50.908 59.0459 50.7184C58.9395 50.5289 58.8863 50.3026 58.8863 50.0395C58.8863 49.7765 58.9414 49.5473 59.0517 49.3519C59.1619 49.1565 59.3109 49.0057 59.4985 48.8993C59.6862 48.7929 59.8941 48.7397 60.1224 48.7397C60.3274 48.7397 60.5054 48.7842 60.6563 48.8732C60.8072 48.9622 60.929 49.0782 61.0219 49.2213L61.0625 48.8384ZM60.2443 50.8519C60.4416 50.8519 60.6108 50.7967 60.752 50.6865C60.8933 50.5762 60.9832 50.4263 61.0219 50.2368V49.761C60.9755 49.5908 60.8787 49.4525 60.7317 49.3461C60.5847 49.2397 60.4164 49.1865 60.2268 49.1865C60.0837 49.1865 59.9512 49.2213 59.8293 49.291C59.7074 49.3606 59.6107 49.4583 59.5391 49.584C59.4676 49.7097 59.4318 49.8519 59.4318 50.0105C59.4318 50.1652 59.4685 50.3064 59.542 50.4341C59.6156 50.5617 59.7142 50.6633 59.838 50.7387C59.9618 50.8141 60.0972 50.8519 60.2443 50.8519ZM62.85 48.8384H63.3897V51.2406H62.85V48.8384ZM62.8093 47.9738C62.8093 47.8887 62.8422 47.8171 62.908 47.7591C62.9738 47.7011 63.0492 47.6721 63.1343 47.6721C63.2194 47.6721 63.2939 47.7011 63.3577 47.7591C63.4216 47.8171 63.4535 47.8887 63.4535 47.9738C63.4535 48.0589 63.4216 48.1305 63.3577 48.1885C63.2939 48.2465 63.2194 48.2755 63.1343 48.2755C63.0492 48.2755 62.9738 48.2465 62.908 48.1885C62.8422 48.1305 62.8093 48.0589 62.8093 47.9738ZM64.678 46.7437H65.2177V51.2406H64.678V46.7437ZM66.2971 50.0163C66.2971 49.7803 66.3542 49.5647 66.4683 49.3693C66.5825 49.174 66.7411 49.0202 66.9442 48.908C67.1473 48.7958 67.3766 48.7397 67.6319 48.7397C67.8873 48.7397 68.1146 48.7958 68.3138 48.908C68.5131 49.0202 68.6678 49.173 68.7781 49.3664C68.8883 49.5598 68.9435 49.7765 68.9435 50.0163C68.9435 50.2561 68.8883 50.4737 68.7781 50.6691C68.6678 50.8644 68.5121 51.0182 68.3109 51.1304C68.1097 51.2426 67.8795 51.2987 67.6203 51.2987C67.3688 51.2987 67.1425 51.2455 66.9413 51.1391C66.7401 51.0327 66.5825 50.8828 66.4683 50.6894C66.3542 50.496 66.2971 50.2716 66.2971 50.0163ZM66.8427 50.0221C66.8427 50.173 66.8765 50.3122 66.9442 50.4399C67.0119 50.5675 67.1048 50.6681 67.2228 50.7416C67.3408 50.8151 67.4714 50.8519 67.6145 50.8519C67.8389 50.8519 68.0246 50.7726 68.1716 50.614C68.3186 50.4554 68.3922 50.2581 68.3922 50.0221C68.3922 49.7861 68.3186 49.5879 68.1716 49.4273C68.0246 49.2668 67.8389 49.1865 67.6145 49.1865C67.4675 49.1865 67.3359 49.2242 67.2199 49.2997C67.1038 49.3751 67.0119 49.4767 66.9442 49.6043C66.8765 49.732 66.8427 49.8712 66.8427 50.0221ZM70.5394 49.407C70.6013 49.2755 70.6893 49.1594 70.8034 49.0589C70.9176 48.9583 71.0385 48.8809 71.1661 48.8268C71.2938 48.7726 71.406 48.7436 71.5027 48.7397L71.4795 49.2794C71.3054 49.2716 71.1478 49.3064 71.0066 49.3838C70.8653 49.4612 70.7551 49.5685 70.6758 49.7059C70.5965 49.8432 70.5568 49.9892 70.5568 50.1439V51.2406H70.0171V48.8384H70.4988L70.5394 49.407Z" fill="white"/>
<path fill-rule="evenodd" clip-rule="evenodd" d="M46.1898 0.877321C44.8822 0.924977 43.7829 2.17869 43.0776 2.92432C43.4298 3.16259 43.8624 3.37668 43.8624 3.37668C44.7385 2.55004 45.1528 2.05038 46.3049 1.78168C46.5322 2.2608 45.5087 3.36018 44.2499 4.4515C43.9074 4.19377 43.5447 3.96416 43.1652 3.76489C40.113 2.16219 36.9083 1.61122 34.0945 1.5489C29.4048 1.44479 25.8013 2.6974 25.8013 2.6974C25.7484 2.7138 25.6994 2.74065 25.6572 2.77635C25.6149 2.81205 25.5802 2.85588 25.5552 2.90524C25.5302 2.95459 25.5154 3.00847 25.5116 3.06367C25.5078 3.11887 25.5151 3.17426 25.5331 3.22657C25.5512 3.27889 25.5795 3.32704 25.6165 3.36819C25.6535 3.40933 25.6984 3.44263 25.7485 3.4661C25.7986 3.48957 25.8529 3.50274 25.9082 3.50482C25.9635 3.5069 26.0186 3.49786 26.0703 3.47822C26.0703 3.47822 35.0223 0.422393 42.7814 4.49659C43.071 4.64872 43.3422 4.81771 43.5985 4.9999C41.9562 6.34086 40.2083 7.50329 40.3363 7.24889C40.3363 7.24889 40.9319 6.07252 42.2359 4.93319C41.9676 4.79306 41.6942 4.66295 41.4162 4.54314C39.9466 6.04686 39.4722 7.10189 38.6023 7.93403C33.7715 12.5522 23.2638 23.2366 23.2638 23.2366C23.2638 23.2366 35.6788 12.4232 39.8846 8.60487C39.7358 8.80356 42.2025 7.3464 44.3239 5.60147C45.2532 6.47393 45.9105 7.55791 46.3233 8.74454C44.5344 9.54425 42.9249 10.696 41.5907 12.131C40.0474 13.799 39.0591 15.6484 38.8809 17.2573C38.7915 18.062 38.9117 18.8204 39.3109 19.4311C39.7105 20.0419 40.3832 20.4711 41.2707 20.6464C42.902 20.9679 44.3727 20.2633 45.446 19.0323C46.5198 17.8017 47.2478 16.0494 47.5528 14.1414C47.8079 12.5445 47.7386 10.8304 47.3134 9.22C49.779 8.28521 52.6582 8.08433 55.6883 9.26765C55.7389 9.28739 55.7928 9.29698 55.8471 9.29587C55.9013 9.29476 55.9548 9.28298 56.0045 9.26119C56.0542 9.23941 56.0992 9.20805 56.1367 9.1689C56.1743 9.12975 56.2038 9.08359 56.2236 9.03304C56.2433 8.98249 56.2529 8.92855 56.2518 8.8743C56.2507 8.82005 56.2389 8.76655 56.2171 8.71685C56.1953 8.66715 56.1639 8.62223 56.1248 8.58465C56.0857 8.54707 56.0395 8.51757 55.9889 8.49783C52.7788 7.24449 49.7134 7.45087 47.0858 8.43185C46.6422 7.1708 45.9475 6.00654 44.9611 5.05856C46.6059 3.59956 47.8215 2.04049 46.9908 1.11927C46.765 0.937074 46.4912 0.866324 46.1895 0.877321H46.1898ZM46.5495 9.53966C46.916 10.995 46.971 12.5467 46.7371 14.0112C46.4527 15.7924 45.7613 17.4138 44.8236 18.489C43.8855 19.5642 42.7539 20.0969 41.4312 19.8359C40.7094 19.6933 40.2714 19.3905 40.0027 18.9795C39.734 18.5686 39.628 18.0169 39.7021 17.3482C39.8502 16.0113 40.7432 14.2623 42.1963 12.6915C43.3459 11.4496 44.8335 10.3227 46.5495 9.54002V9.53966Z" fill="white"/>
<defs>
<clipPath id="clip0_95_46">
<rect width="73.1928" height="13.4563" fill="white" transform="translate(0.817993 24.2979)"/>
</clipPath>
</defs>
</svg>
