<svg width="20" height="15" viewBox="0 0 20 15" fill="none" xmlns="http://www.w3.org/2000/svg">
<path d="M14.3359 8.46829H12.0896C11.8857 8.46829 11.7206 8.63436 11.7206 8.84008C11.7206 9.0458 11.8857 9.21187 12.0896 9.21187H14.3359C14.5401 9.21187 14.7049 9.0458 14.7049 8.84008C14.7049 8.63436 14.5401 8.46829 14.3359 8.46829ZM14.3359 9.88853H12.0896C11.8857 9.88853 11.7206 10.0546 11.7206 10.2603C11.7206 10.466 11.8857 10.6321 12.0896 10.6321H14.3359C14.5401 10.6321 14.7049 10.466 14.7049 10.2603C14.7049 10.0546 14.5401 9.88853 14.3359 9.88853ZM13.2141 6.29951C14.0161 6.29951 14.668 5.64268 14.668 4.83466C14.668 4.02663 14.0161 3.3698 13.2141 3.3698C12.4121 3.3698 11.7602 4.02663 11.7602 4.83466C11.7602 5.64268 12.4121 6.29951 13.2141 6.29951ZM13.2141 4.11338C13.608 4.11338 13.93 4.43833 13.93 4.83466C13.93 5.23098 13.6077 5.55593 13.2141 5.55593C12.8183 5.55593 12.4982 5.23098 12.4982 4.83466C12.4982 4.43833 12.818 4.11338 13.2141 4.11338ZM17.9571 12.0695H17.1207V6.05661H17.4356C18.0162 6.05661 18.491 5.58072 18.491 4.99354V3.0974C18.491 2.50997 18.0162 2.03408 17.4356 2.03408H17.1207C17.1136 1.45384 16.6437 0.983154 16.068 0.983154H2.26677C1.68373 0.983154 1.2114 1.46177 1.2114 2.04647V6.04446C1.2114 6.56993 1.59271 7.00616 2.09211 7.08795V8.3741C2.09211 8.57983 2.25693 8.74589 2.46112 8.74589H3.2877V10.2606C3.2877 10.4663 3.45253 10.6324 3.65671 10.6324C3.8609 10.6324 4.02573 10.4663 4.02573 10.2606V8.74589H4.85206C5.05625 8.74589 5.22108 8.57983 5.22108 8.3741V7.10778H9.30505V12.0697H1.39345C0.812868 12.0697 0.338074 12.5486 0.338074 13.1333V13.9485C0.338074 14.1542 0.505359 14.3203 0.707085 14.3203H18.641C18.8452 14.3203 19.01 14.1542 19.01 13.9485V13.1333C19.01 12.5483 18.5377 12.0695 17.9571 12.0695ZM17.1207 2.77742H17.4356C17.6103 2.77742 17.7529 2.92093 17.7529 3.09716V4.99329C17.7529 5.16902 17.6103 5.31278 17.4356 5.31278H17.1207V2.77742ZM10.0431 1.72649H16.0678C16.2425 1.72649 16.3824 1.87025 16.3824 2.04623V2.86169C16.3824 2.86912 16.3824 2.87656 16.3824 2.884V12.0695H10.0431V1.72649ZM4.48305 8.00206H2.82988V7.10754H4.48305V8.00206ZM2.26677 6.36395C2.09211 6.36395 1.94942 6.2202 1.94942 6.04421V5.20645H3.65671C3.8609 5.20645 4.02573 5.04038 4.02573 4.83466C4.02573 4.62893 3.8609 4.46287 3.65671 4.46287H1.94942V2.04623C1.94942 1.87025 2.09211 1.72649 2.26677 1.72649H9.30505V4.46287H5.41075C5.20656 4.46287 5.04174 4.62893 5.04174 4.83466C5.04174 5.04038 5.20656 5.20645 5.41075 5.20645H9.30505V6.36395H2.26677ZM18.272 13.5764H1.0761V13.133C1.0761 12.9568 1.21878 12.813 1.39345 12.813H17.9571C18.1318 12.813 18.272 12.9568 18.272 13.133V13.5764Z" fill="#7D8893"/>
</svg>
