<svg width="21" height="21" viewBox="0 0 21 21" fill="none" xmlns="http://www.w3.org/2000/svg">
<path d="M5.66951 13.0559C5.65847 13.0662 5.64756 13.0768 5.63678 13.0876L1.05577 17.6686C0.518278 18.2061 0.518278 19.0775 1.05577 19.615C1.59326 20.1525 2.4647 20.1525 3.00219 19.615L7.5832 15.034C7.59398 15.0232 7.60454 15.0123 7.61489 15.0013C8.96493 15.9628 10.6166 16.5284 12.4004 16.5284C16.9611 16.5284 20.6583 12.8312 20.6583 8.27042C20.6583 3.70967 16.9611 0.0124512 12.4004 0.0124512C7.8396 0.0124512 4.14238 3.70967 4.14238 8.27042C4.14238 10.0542 4.70793 11.7058 5.66951 13.0559ZM12.4004 13.7757C9.35985 13.7757 6.89504 11.3109 6.89504 8.27042C6.89504 5.22992 9.35985 2.76511 12.4004 2.76511C15.4409 2.76511 17.9057 5.22992 17.9057 8.27042C17.9057 11.3109 15.4409 13.7757 12.4004 13.7757Z" fill="#53A9E7"/>
</svg>
